<?xml version="1.0" standalone="no"?>
<!DOCTYPE svg PUBLIC "-//W3C//DTD SVG 1.1//EN" "http://www.w3.org/Graphics/SVG/1.1/DTD/svg11.dtd" >
<svg xmlns="http://www.w3.org/2000/svg" xmlns:xlink="http://www.w3.org/1999/xlink" version="1.1">
<metadata>
Created by FontForge 20201107 at Fri May  9 06:13:50 2025
 By 
Morning Routine (c) (MJType). 2025. All Rights Reserved
</metadata>
<defs>
<font id="MorningRoutine" horiz-adv-x="1087" >
  <font-face 
    font-family="Morning Routine"
    font-weight="400"
    font-stretch="normal"
    units-per-em="2048"
    panose-1="0 0 0 0 0 0 0 0 0 0"
    ascent="1638"
    descent="-410"
    x-height="995"
    cap-height="1468"
    bbox="-70.1667 -494 1547.5 1845"
    underline-thickness="0"
    underline-position="0"
    unicode-range="U+000A-2212"
  />
<missing-glyph horiz-adv-x="1079" 
 />
    <glyph glyph-name=".notdef" horiz-adv-x="1079" 
 />
    <glyph glyph-name="uni0000" horiz-adv-x="0" 
 />
    <glyph glyph-name="uni0000" horiz-adv-x="0" 
 />
    <glyph glyph-name="uni000D" unicode="&#xd;" horiz-adv-x="0" 
 />
    <glyph glyph-name="uni000A" unicode="&#xa;" horiz-adv-x="0" 
 />
    <glyph glyph-name="space" unicode=" " horiz-adv-x="614" 
 />
    <glyph glyph-name="exclam" unicode="!" horiz-adv-x="405" 
d="M268 825q-4 -28 -24 -44.5t-45 -16.5q-47 0 -62 45q-2 6 -15.5 45t-15.5 45q-16 74 -16 227q0 238 86 390q12 23 32 38t40 15q18 0 35 -17q14 -19 20 -49q2 -31 -22 -205q-4 -80 -3.5 -123t3 -123t2.5 -124q0 -6 -3 -28t-7.5 -47t-4.5 -28zM313 250q-7 -27 -28 -42
t-47 -15q-33 0 -56 20q-27 27 -27 67.5t25 71.5q23 29 62 29q26 0 44 -17.5t17 -46.5q18 -36 10 -67z" />
    <glyph glyph-name="quotedbl" unicode="&#x22;" horiz-adv-x="546" 
d="M182 1151q-4 -21 -20.5 -34t-36.5 -13q-30 0 -49 29t-25 63q-3 29 6.5 86.5t22.5 79.5q21 27 51 27q24 0 41.5 -15.5t17.5 -42.5q1 -15 -4 -96q0 -66 -4 -84zM465 1141q-16 -19 -39 -19q-14 0 -27.5 9.5t-17.5 23.5q-14 40 -6 70q3 13 11 37t11 34q7 26 29 39q4 0 4 4
q13 13 29 13q23 0 34.5 -20.5t-1.5 -43.5q-9 -15 -9 -71q0 -16 -5 -42t-13 -34z" />
    <glyph glyph-name="quotedbl" unicode="&#x201f;" horiz-adv-x="546" 
d="M182 1151q-4 -21 -20.5 -34t-36.5 -13q-30 0 -49 29t-25 63q-3 29 6.5 86.5t22.5 79.5q21 27 51 27q24 0 41.5 -15.5t17.5 -42.5q1 -15 -4 -96q0 -66 -4 -84zM465 1141q-16 -19 -39 -19q-14 0 -27.5 9.5t-17.5 23.5q-14 40 -6 70q3 13 11 37t11 34q7 26 29 39q4 0 4 4
q13 13 29 13q23 0 34.5 -20.5t-1.5 -43.5q-9 -15 -9 -71q0 -16 -5 -42t-13 -34z" />
    <glyph glyph-name="numbersign" unicode="#" horiz-adv-x="1343" 
d="M367 6q-12 -6 -29 -6q-30 0 -53 29t-32 60.5t-13 64.5q-7 57 6 200q2 21 7 60.5t7 60.5l-117 -6q-4 0 -17 -1t-22 -0.5t-16 5.5q-34 17 -22.5 52.5t49.5 35.5q6 0 26.5 5.5t30.5 2.5t31 4q36 9 76 15q23 129 38 203q1 8 11 53h-162q-4 0 -12 1t-11 1q-22 1 -32.5 19
t-3.5 37.5t28 25.5q11 4 41 8q34 5 95.5 13.5t80.5 11.5q64 265 113 436q-17 4 -25.5 19t-3.5 34q8 28 30 47t48 19t44.5 -19.5t25.5 -46.5q7 -30 2 -115q-5 -59 -43 -282q-6 -35 -15 -74q151 10 281 4q67 0 119 -8q42 134 63 190q56 159 103 244l4.5 9t5 9t5 8t5.5 9
t5.5 7.5t7 6.5t7.5 4.5t9 3.5q3 1 21.5 11.5t21.5 11.5q23 9 38.5 -6t12.5 -38t-25 -34q-6 0 -6 -4q-2 -8 -9.5 -23.5t-8.5 -17.5q-11 -28 -49 -154q-24 -75 -74 -270q12 -4 18 -8q18 -8 45 -31q29 -22 17 -56.5t-47 -31.5q-8 2 -62 2q-20 -90 -28 -137q55 3 221 -6
q36 -1 49 -37t-12 -64q-13 -14 -51 -23.5t-91 -16t-59 -7.5q-44 -6 -90 -10q-14 -63 -19 -113q-2 -7 -5.5 -36.5t-7 -62t-3.5 -36.5q9 -23 3.5 -60.5t-17.5 -60.5q-16 -36 -54 -36q-47 0 -67 67q-3 8 -13 25.5t-12 27.5q-3 16 -5 32t-1 35t1.5 32.5t4 36t5 32t6.5 35.5t6 33
q1 5 4 18t4 21q-272 -17 -363 -21q-9 -59 -10 -75q-10 -57 -35 -260q25 -7 34 -31.5t-5 -46.5q-33 -51 -59 -66zM504 840q-7 -37 -20.5 -112t-20.5 -112q16 2 56.5 8t62.5 9q158 26 260 35q6 25 41 153q-274 16 -301 17q-27 2 -78 2z" />
    <glyph glyph-name="dollar" unicode="$" horiz-adv-x="1185" 
d="M813 -297q-29 -10 -64.5 9.5t-54.5 49.5q-74 117 -92 322q-2 4 -2 10q-149 0 -304.5 36t-238.5 112q-18 20 -17 42.5t21.5 37.5t44.5 6q6 -2 17.5 -7.5t17.5 -7.5q60 -21 181 -37q176 -20 268 -18q-5 107 -2 240l6 141q-3 2 -107 84q-106 86 -157 137q-61 65 -76 121
q-10 35 -4 74.5t26 70.5q55 82 163.5 131.5t219.5 59.5q32 179 58 209q19 22 51 22q23 0 34 -17.5t3.5 -37.5t-29.5 -27q-6 -23 -10 -155q43 -4 84.5 -16t81 -33t64 -56.5t24.5 -79.5q0 -2 -3 -16t-3 -16q-4 -16 -16 -25.5t-25 -9.5q-18 0 -30 12t-9 33q1 18 -7.5 30t-28 17
t-35 7t-40.5 3q-18 2 -57 2q0 -47 -8 -415q129 -109 207 -181q36 -35 60 -60t52 -66.5t35 -75.5q10 -56 -14 -103q-22 -43 -86.5 -78.5t-124.5 -52t-117 -25.5q4 -64 16 -184q8 -67 21 -104q3 -12 18 -23q26 -19 21.5 -50t-33.5 -42zM756 512q0 -120 6 -240q33 0 89.5 18.5
t88.5 37.5q6 0 6 4q-6 10 -22 26q-44 47 -168 154zM473 993q19 -19 41.5 -39.5t50.5 -45t43 -38.5l25 258q1 2 1.5 5.5t1 8.5t1.5 9q-25 -6 -72 -21q-91 -37 -133 -92q13 -20 41 -45z" />
    <glyph glyph-name="percent" unicode="%" horiz-adv-x="1249" 
d="M537 223q-96 -49 -158 -49q-53 0 -84 39q-36 42 -25 111q7 51 45 129q209 403 594 788q2 10 9.5 19t20.5 19.5t17 14.5q14 11 29 11q24 0 38 -21.5t1 -46.5t-84 -127.5t-104 -148.5q-215 -327 -244 -375q-116 -183 -156 -279q8 1 68 17q29 7 47.5 -13t15 -47.5
t-29.5 -40.5zM467 1034q-11 -68 -109 -157t-172 -89q-55 0 -92 50q-37 52 -20 172q15 115 67 178q9 47 68 47q60 0 190 -72q48 -28 62 -69q10 -22 6 -60zM178 1001q0 -62 10 -79q31 6 83.5 50.5t74.5 76.5q-19 15 -41 25.5t-59 24.5t-45 17q-23 -50 -23 -115zM1163 436
q-26 -65 -77 -117.5t-111 -52.5h-12q-59 6 -91.5 57.5t-27.5 116.5q6 66 35 127t77 99q1 15 8.5 24t21 12t23 4t25.5 1q40 0 76 -19q37 -21 55 -66.5t16.5 -94.5t-18.5 -91zM946 385q10 -18 31 -18q39 0 76.5 52t44.5 97q7 55 -19 88q-12 15 -45 19q-2 0 -9.5 -6t-8.5 -7
q-34 -22 -57 -63t-29 -84q-6 -42 16 -78z" />
    <glyph glyph-name="ampersand" unicode="&#x26;" horiz-adv-x="1079" 
d="M410 102q-80 -44 -150 -47q-57 0 -100 33t-56 90q-14 62 21 162q41 114 151 287q-113 176 -145 291q-39 136 -22 264q27 167 155 261.5t303 94.5q75 0 139 -21.5t110 -74t46 -129.5q2 -80 -61 -197q-43 -79 -97.5 -160.5t-130.5 -186.5t-110 -155q58 -89 143 -184
q18 14 145 110.5t146 110.5q33 25 61 25h5q28 -1 40 -27t1 -53q-43 -94 -283 -277l45 -39t54 -46t48 -37q12 -8 39 -17q29 -4 41 -12q22 -20 11.5 -48t-39.5 -28q-10 0 -23.5 3.5t-36.5 12.5t-24 9q-137 69 -215 127q-128 -96 -211 -142zM262 1079q10 -135 107 -311
q18 27 133.5 188t169.5 252q37 60 41 95q4 32 -25 47.5t-72 19.5q-14 2 -45 2q-109 0 -196 -51t-107 -150q-9 -44 -6 -92zM379 483q-32 -56 -47 -83.5t-34 -77t-24 -91.5q73 5 224 119q-28 28 -119 133z" />
    <glyph glyph-name="quotesingle" unicode="'" horiz-adv-x="241" 
d="M180 1202q-4 -24 -21 -37.5t-38 -13.5t-37.5 12.5t-20.5 36.5q-19 98 -2 186q4 24 22.5 40t39.5 16q22 0 39 -17q17 -19 23 -64t3.5 -85.5t-8.5 -73.5z" />
    <glyph glyph-name="quotesingle" unicode="&#x201b;" horiz-adv-x="241" 
d="M180 1202q-4 -24 -21 -37.5t-38 -13.5t-37.5 12.5t-20.5 36.5q-19 98 -2 186q4 24 22.5 40t39.5 16q22 0 39 -17q17 -19 23 -64t3.5 -85.5t-8.5 -73.5z" />
    <glyph glyph-name="parenleft" unicode="(" horiz-adv-x="618" 
d="M555 -436q-12 -4 -41 -4q-59 0 -112.5 29t-93 73t-73 103t-54.5 112.5t-36 108.5q-88 321 -20 714q64 361 209 639q22 45 50.5 91.5t70 103t89 92t89.5 35.5q25 0 47 -16q27 -22 26 -55t-28 -54q-7 -4 -20.5 -21t-24.5 -33t-25 -37l-16 -24q-218 -336 -285 -778
q-66 -420 55 -754q59 -166 156 -215q4 -2 10.5 -3t14.5 -1.5t12 -1.5q27 -4 38.5 -28t0.5 -48t-39 -28z" />
    <glyph glyph-name="parenright" unicode=")" horiz-adv-x="559" 
d="M96 -432q-24 -21 -58 -41.5t-56 -20.5h-5q-28 3 -36.5 29.5t10.5 48.5q9 11 27.5 29t25.5 25q82 98 153 245t99 273q46 198 18 465q-16 144 -45 276q-22 105 -79.5 293.5t-94.5 239.5q-3 5 -28.5 38.5t-28.5 38.5q-25 37 -4 73t59 36q20 0 33 -8q69 -35 111 -91t79 -143
q220 -528 175 -1034q-13 -158 -71.5 -316t-150.5 -296q-77 -112 -133 -160z" />
    <glyph glyph-name="plus" unicode="+" horiz-adv-x="776" 
d="M451 387q-15 -27 -43 -27q-40 0 -58 35q-22 39 -26 135q0 82 4 152q-209 -25 -244 -23q-23 2 -32.5 22t0 40t32.5 22q43 4 117 27q7 3 133 39q7 153 10 192q-10 -10 -29 -10q-25 0 -36 23.5t8 46.5q36 40 71 43q32 4 54 -12q52 -43 61 -248q74 12 111 16q32 2 94 -6
q30 -3 42.5 -28.5t1 -52t-41.5 -32.5q-147 -30 -178 -34q-3 -1 -6.5 -1.5t-9 -1.5t-9.5 -2q3 -118 -8 -219q-9 -84 -18 -96z" />
    <glyph glyph-name="comma" unicode="," horiz-adv-x="258" 
d="M176 309q-6 -21 -22.5 -33t-36.5 -12q-59 0 -68 92q-2 45 25.5 100.5t64.5 73.5q7 5 21 5q25 0 40 -22t5 -48q-4 -8 -4 -29q-21 -114 -25 -127z" />
    <glyph glyph-name="hyphen" unicode="-" horiz-adv-x="1073" 
d="M930 608q-9 0 -67.5 -2t-67.5 -2q-58 0 -287 19t-289 28q-121 15 -156 38q-15 9 -20 20q-11 23 2 45.5t39 23.5l20 10q28 9 48 -14q138 6 276 6q313 0 518 -47q5 -1 20.5 -6.5t24.5 -7.5q30 -5 39 -30.5t-6 -49.5t-45 -25q-31 0 -49 -6z" />
    <glyph glyph-name="period" unicode="." horiz-adv-x="227" 
d="M188 406q-1 -33 -24 -55.5t-53 -22.5q-20 0 -33 8q-41 24 -38.5 70.5t42.5 70.5q13 8 33 8q30 0 52 -23t21 -56z" />
    <glyph glyph-name="zero" unicode="0" horiz-adv-x="995" 
d="M891 764q-13 -76 -38.5 -161t-69.5 -178.5t-98.5 -167t-130.5 -121.5t-159 -48q-107 0 -188 94q-87 106 -103 336q-14 162 5 348q21 195 84 332q18 40 41.5 77t55.5 74.5t72.5 60t81.5 22.5q42 0 74.5 -23t36.5 -63q72 -7 123 -21t97.5 -42t76.5 -76.5t45 -119.5
q24 -125 -6 -323zM381 258q35 -15 65 -8q59 10 123 74q88 88 142 233t71 291q11 102 4 170q-12 88 -39.5 121.5t-109.5 66.5q-12 4 -89 29t-89 29q-53 -38 -90 -120t-53.5 -183t-22.5 -181t-6 -157q-3 -100 8 -183q21 -152 86 -182z" />
    <glyph glyph-name="one" unicode="1" horiz-adv-x="583" 
d="M410 301q5 -99 -2 -129q-12 -54 -60 -53q-19 0 -44.5 20.5t-37.5 40.5q-31 57 -37 121q-13 90 -10 203q3 112 16 226.5t41 288t35 224.5q-168 -158 -211 -158q-17 0 -29 14t-9.5 33t20.5 31q3 2 12.5 7t14.5 10q9 11 62 67t101 108.5t60 69.5q23 29 57 29q26 0 47 -18
q26 -25 37 -92.5t10 -124t-6 -107.5q-7 -77 -27.5 -225.5t-27.5 -222.5q-17 -207 -12 -363z" />
    <glyph glyph-name="two" unicode="2" horiz-adv-x="1015" 
d="M233 49q-39 -19 -67 -8q-32 9 -48.5 41.5t-4.5 64.5q7 26 49 74q264 292 428 608q103 207 108 312q3 64 -32 102q-45 53 -146 53q-88 0 -198 -41.5t-177 -99.5q-9 -33 -41 -33q-25 0 -34 27l-2 4q-26 42 53 121q87 82 201.5 129t232.5 47q82 0 154 -35.5t112 -101.5
q58 -94 41 -223q-15 -121 -82.5 -270t-146 -266.5t-168.5 -227.5q-17 -17 -23 -29q155 51 283 51q62 0 105 -9.5t92 -37.5q18 -12 21 -32.5t-8.5 -37t-33.5 -18.5q-4 -1 -32.5 -4t-32.5 -4q-193 -6 -363 -60q-37 -12 -74 -26.5t-93 -38.5t-73 -31z" />
    <glyph glyph-name="three" unicode="3" horiz-adv-x="866" 
d="M444 41q-39 -10 -96 -10q-63 0 -139 27t-94 75q-12 34 10 62.5t57 21.5q10 -2 62 -2q33 -2 100 -2q40 0 113 25q61 25 113 79t48 107q-10 103 -83 158t-181 55q-17 1 -35 -3.5t-41.5 -12.5t-35.5 -11q-44 -12 -70.5 20t-16.5 73.5t54 54.5q1 1 10 6t10 6q54 15 99 51
q85 63 144.5 125.5t90.5 136.5q21 52 8 93q-21 58 -82 82t-135 24q-115 0 -186 -35q-10 -33 -41 -33q-16 0 -29 13q-32 39 -8 82q4 8 11 16.5t12.5 13.5t16 13.5t13.5 11.5q56 44 136 68t157 24q108 0 193 -55t121 -156q37 -111 -15 -229q-65 -144 -227 -258
q113 -33 181 -123t77 -211q8 -85 -37.5 -168t-122 -139.5t-162.5 -75.5z" />
    <glyph glyph-name="four" unicode="4" horiz-adv-x="993" 
d="M780 39q-4 -20 -19.5 -32.5t-35.5 -12.5q-34 0 -60.5 37t-31.5 73q-13 85 -4 162q6 77 33 295q-67 -36 -107 -55t-103.5 -38t-119.5 -19q-86 0 -148.5 40.5t-89.5 120.5q-31 90 -18 187q11 92 55 192q20 46 53.5 109.5t81 141t100 130.5t91.5 53q32 0 49.5 -25.5
t9.5 -58.5q-4 -14 -41 -75t-39 -64q-110 -185 -157 -299q-16 -42 -25 -87.5t-3.5 -95t32.5 -73.5q16 -16 53 -16q54 0 149 41q32 15 101.5 50.5t107.5 53.5q32 202 70 342q5 15 14 54.5t17 60.5q14 31 45 31q20 0 33 -17.5t16 -40.5q3 -8 0.5 -50t-2.5 -50q3 -78 -4 -170
q0 -24 -11 -121q15 -15 18 -36t-9 -42q-5 -10 -19 -24q-57 -548 -82 -672z" />
    <glyph glyph-name="five" unicode="5" horiz-adv-x="1034" 
d="M852 272q-64 -98 -161 -160.5t-206 -62.5q-86 0 -176 59t-119 136q-12 29 6 54.5t46 25.5q14 0 26 -9q47 -27 119.5 -56.5t110.5 -29.5q79 0 148 51.5t107.5 128t41.5 154.5q4 110 -41 160q-37 39 -140 39q-32 0 -64 -3t-69 -10t-60.5 -12.5t-68 -16.5t-61.5 -15
q-70 -17 -98 -17q-29 0 -50 8q-35 12 -54.5 44.5t-14.5 70.5q7 47 137 336q13 31 55 151q18 56 51 86q27 21 84 25q64 0 219 -5.5t193 -12.5q2 0 9 3t9 3q23 9 39 -5.5t13 -37t-25 -33.5q-36 -19 -86 -29q-99 -22 -342 -43q-2 -5 -15.5 -43t-15.5 -43q-11 -34 -28.5 -75
t-28 -62.5t-38 -76t-32.5 -64.5q161 37 209 45q72 10 131 10q136 0 226 -67.5t108 -202.5q13 -101 -12 -207t-82 -191z" />
    <glyph glyph-name="six" unicode="6" horiz-adv-x="1058" 
d="M963 291q-44 -136 -160 -231t-254 -95q-114 0 -206.5 66t-160.5 174q-103 163 -96 381q6 158 66 317.5t159 298.5q170 232 342 232q21 0 49 -7q66 -20 105 -65q15 -21 28 -62t7 -63q-4 -16 -16 -25.5t-25 -9.5q-33 0 -39 33q0 1 -1 15t-5 16q-21 11 -58 18
q-41 5 -95 -32.5t-92 -80t-69 -88.5q-129 -192 -163 -372q133 43 280 43q62 0 118 -9t112 -29.5t100.5 -60t68.5 -94.5q51 -123 5 -270zM319 299q36 -85 96 -143t142 -58q112 0 200.5 95t104.5 210q10 56 -8 105q-44 121 -303 121q-117 0 -285 -25q-7 -174 53 -305z" />
    <glyph glyph-name="seven" unicode="7" horiz-adv-x="917" 
d="M289 -23q-16 -8 -37 -8q-29 0 -54.5 20t-35.5 52q-20 61 4 176q22 99 82 238l31 67q-42 3 -58 6q-25 6 -32 33.5t12 46.5t43 19q15 0 24 -9q18 0 58 3q138 283 321 557q33 51 45 73q-25 1 -174 -2.5t-160 -3.5q-164 0 -249 37q-31 13 -37 21q-20 25 -3.5 51t46.5 18
q44 -13 86 -10q408 35 501 35q134 0 156 -92q7 -42 -16 -109q-12 -31 -67.5 -135.5t-117.5 -217.5t-73 -134q-4 -9 -18 -36t-21 -42q86 0 131 -2q27 -1 38.5 -23.5t1 -46.5t-37.5 -29q-55 -7 -189 -10q-60 -123 -100 -219q-52 -131 -65 -192q-1 -3 -4.5 -15t-6 -22.5
t-0.5 -14.5q11 -22 4 -46t-28 -34z" />
    <glyph glyph-name="eight" unicode="8" horiz-adv-x="1112" 
d="M649 -20q-89 -35 -160 -35q-66 0 -118.5 30.5t-81.5 87.5q-44 91 -19 224q34 166 142 348q-136 53 -176 72q-102 50 -136 102q-30 46 -32.5 109t18.5 114q40 103 137.5 193t218 142t228.5 52q120 0 207 -65t100 -180q13 -88 -41 -244q-45 -122 -82 -201l-49 -98
q117 -42 162 -82q42 -39 51 -90q13 -70 -17 -145.5t-86.5 -138.5t-126 -114t-139.5 -81zM647 686q4 -1 12.5 -4t12.5 -4q5 17 13 35.5t18.5 40.5t15.5 34q9 19 41.5 85t50.5 110.5t29 89.5q18 60 2 105q-14 52 -69.5 78t-117.5 26q-72 0 -148 -28t-132 -72
q-60 -48 -111.5 -116.5t-54.5 -127.5q-3 -31 10 -53q30 -54 270 -144q63 72 115 72q37 0 55.5 -31.5t-2.5 -62.5q-5 -9 -10 -33zM442 188q0 -32 14.5 -45.5t47.5 -13.5q60 0 139.5 42t142 104.5t80.5 117.5q12 37 2 47q-26 23 -126.5 65.5t-168.5 67.5q-79 -140 -116 -284
q-17 -70 -15 -101z" />
    <glyph glyph-name="nine" unicode="9" horiz-adv-x="854" 
d="M453 70q-80 -80 -119 -80q-31 3 -46 29t5 49q14 17 39 14q127 150 215 350q-156 4 -234 51q-131 76 -200 275q-32 89 -34.5 183t22.5 177t84 150t145 98q58 23 112 23q49 0 101.5 -19.5t85.5 -52.5q73 -65 104 -191t31 -254q0 -202 -87 -428t-224 -374zM367 666
q25 -32 67.5 -57.5t70.5 -36t87 -29.5q69 203 55 381q-10 130 -57 227q-38 90 -127 90q-47 0 -92 -26t-70 -66q-30 -40 -37 -109q-12 -96 15.5 -197t87.5 -177z" />
    <glyph glyph-name="colon" unicode=":" horiz-adv-x="260" 
d="M205 1085q10 -39 -14.5 -70.5t-63.5 -31.5q-15 0 -21 2q-43 12 -51.5 57.5t25.5 77.5q23 23 53 23q25 0 45.5 -15.5t26.5 -42.5zM168 428q-18 -27 -47 -27q-25 0 -43 19t-15 47q3 25 29 54.5t51 29.5q24 0 37 -16q21 -7 26 -29t-9 -39q-17 -17 -19 -21q-10 -10 -10 -18z
" />
    <glyph glyph-name="semicolon" unicode=";" horiz-adv-x="305" 
d="M197 1087q-8 -22 -28.5 -35.5t-41.5 -9.5q-19 3 -39 23q-31 32 -20 75t55 52q23 5 44.5 -6.5t31.5 -34.5q12 -13 11.5 -32t-13.5 -32zM211 410q0 -27 -3 -56t-10.5 -67t-26.5 -62t-46 -24q-20 0 -35.5 12.5t-19.5 34.5q-8 51 6 119q16 60 33 92q17 24 41 33q19 6 61 2
q34 -5 34.5 -40.5t-34.5 -43.5z" />
    <glyph glyph-name="less" unicode="&#x3c;" horiz-adv-x="716" 
d="M629 537q-35 -17 -78 -17q-105 0 -249.5 42t-205.5 100q-27 29 -34 69t8 76q27 60 114.5 126t181.5 110t160 57q25 2 76 2q21 0 31.5 -18t3.5 -38t-29 -26q-13 -4 -52.5 -22.5t-51.5 -26.5q-35 -23 -136.5 -101t-125.5 -102q36 -19 81.5 -34.5t78.5 -24t89.5 -21.5
t83.5 -20q31 -10 56 -29q28 -20 27.5 -52.5t-29.5 -49.5z" />
    <glyph glyph-name="equal" unicode="=" horiz-adv-x="813" 
d="M594 969q-218 -43 -424 -43q-72 0 -90 10q-26 14 -26 46t26 46q56 22 59 23q11 0 23 -4q37 7 143.5 33t165.5 34q40 4 66 4q148 0 153 -94q3 -32 -14.5 -54t-42.5 -22q-21 0 -39 21zM526 604q-298 -23 -370 -18q-21 3 -38 21t-14 38q0 24 21 38.5t47 18.5q291 78 426 78
q29 0 50 -2.5t44.5 -10t40 -24.5t25.5 -43q9 -37 -21.5 -63t-72.5 -21q-9 1 -138 -12z" />
    <glyph glyph-name="greater" unicode="&#x3e;" horiz-adv-x="729" 
d="M586 725q-70 -54 -227 -134.5t-220 -80.5q-39 0 -67 31q-13 15 -14 37t10 40l9 12t11 13.5t10 9.5t27 13.5t47.5 19t28.5 10.5q197 78 313 160q-18 9 -81 29.5t-137.5 43t-82.5 25.5q-14 7 -20 7q-14 0 -35 8t-31 16q-23 19 -13.5 48t40.5 30q5 0 41 6q79 3 180 -18
q78 -12 154.5 -38.5t113.5 -68.5q53 -63 14 -137q-20 -42 -71 -82z" />
    <glyph glyph-name="question" unicode="?" horiz-adv-x="755" 
d="M264 119q-37 -10 -67.5 19t-24.5 67q3 24 22.5 47.5t41.5 26.5h14q11 8 22 8q23 0 35.5 -21.5t-0.5 -44.5q19 -29 6.5 -61.5t-45.5 -38.5q-2 0 -4 -2zM293 651q32 -31 15.5 -71.5t-60.5 -40.5h-4q-65 0 -102.5 51.5t-18.5 114.5q15 54 76 139q25 34 73 94t66 84
q167 212 176 266q0 1 -2 2.5t-4.5 3t-3.5 2.5q-28 19 -80.5 32t-91.5 13q-71 0 -150 -51q15 -23 5 -47t-35 -24q-21 0 -44 19t-28 40q-9 36 22 74q62 81 164 116q19 6 63 17.5t56 11.5q113 10 201 -35q58 -25 84 -69q41 -62 24 -146q-16 -90 -104 -213q-12 -16 -84.5 -104
t-136 -169.5t-76.5 -109.5z" />
    <glyph glyph-name="at" unicode="@" horiz-adv-x="1544" 
d="M1270 68q-256 -146 -451 -146q-81 0 -188 21q-101 18 -186 52.5t-158 88.5t-123.5 133t-71.5 178q-34 154 23 346q52 167 150 317t229 257q223 174 434 174q80 0 149 -26t120 -69t94 -104t72 -125.5t52 -140.5q64 -221 29 -442q-32 -199 -170 -199q-64 0 -120 37.5
t-90.5 88t-59.5 112.5q-88 -162 -189 -263q-45 -39 -86 -39q-94 0 -129 136q-39 131 -8 262q11 46 33.5 97.5t55 103t78 85t93.5 33.5q92 0 149 -104q21 24 54 24q25 0 45 -16t26 -43q2 -7 2 -15t-1 -16.5t-1 -13.5q-4 -79 9 -133q14 -55 54 -110t85 -60q9 12 18 55.5
t11 69.5q15 207 -72 411q-51 116 -123.5 184t-183.5 68q-118 0 -237 -69.5t-207 -175t-149.5 -229t-76.5 -234.5q-21 -130 16 -228q58 -186 338 -258q138 -35 307 -28q48 3 98.5 10t120.5 19t97 16q41 6 57.5 -31.5t-18.5 -60.5zM760 694q-18 -73 0 -174q115 117 207 314
q1 1 -1 2.5t-5.5 3.5t-6 3.5t-4.5 2.5q-5 6 -9.5 19.5t-6.5 17.5q-2 5 -23 10q-2 0 -11 3t-11 3q-38 -3 -76 -76t-53 -129z" />
    <glyph glyph-name="A" unicode="A" horiz-adv-x="901" 
d="M797 53q19 -29 2 -61.5t-49 -32.5q-2 0 -6.5 1t-6.5 1q-84 19 -129.5 80.5t-56.5 151.5q-10 81 -4 155q-135 -33 -287 -33h-29q-27 -104 -65 -225q-2 -5 -6.5 -23t-9 -28.5t-11.5 -18.5q-12 -12 -26 -12q-24 0 -37.5 22.5t0.5 45.5q1 1 4 10t4 10q11 52 53 219
q-74 4 -94 11q-22 9 -26.5 31t10.5 39t39 12q43 -8 96 -5q85 299 229 709q20 52 45.5 108.5t64.5 128.5t84 118t85 46t68 -33t40.5 -84.5t17.5 -94t5 -80.5q2 -125 -8.5 -265.5t-28.5 -309.5t-25 -265q-5 -130 0 -172q2 -14 10.5 -54t12.5 -51q4 -8 9.5 -16.5t13.5 -18.5
t12 -16zM414 903q-61 -169 -152 -479q196 42 250 51q4 1 10 1.5t15.5 1t17.5 1.5q3 34 37 356t35 490q-57 -79 -115.5 -197t-97.5 -225z" />
    <glyph glyph-name="B" unicode="B" horiz-adv-x="1191" 
d="M1153 332q-8 -62 -48 -118.5t-97 -97t-125 -70.5t-135.5 -45t-124.5 -15q-73 0 -111.5 13t-97.5 56q-29 22 -14.5 56.5t49.5 27.5q58 -10 106 -10q135 0 264 55q183 83 201 176q3 22 -11 44.5t-34 35.5q-102 70 -295 70q-69 0 -166 -13t-139 -36q-10 -147 -10 -199
q0 -30 5.5 -86t6.5 -80q1 -22 -12 -35.5t-31 -13.5q-28 0 -41 29q-36 81 -57 209q-23 136 -13 293q12 238 47 483q1 6 17.5 98.5t23.5 122.5q-69 -58 -102.5 -140t-54.5 -198q27 -25 13.5 -51.5t-44.5 -26.5q-47 0 -68 66q-15 51 -8 112q10 140 87.5 257t200.5 184t263 67
q138 0 227 -55q58 -35 100.5 -89.5t55.5 -115.5q18 -79 -1.5 -166.5t-64.5 -164.5q-110 -181 -303 -334q70 4 105 4q71 0 141 -10.5t144.5 -43.5t109.5 -85q54 -73 41 -160zM391 731q0 -7 -2.5 -35.5t-3.5 -48.5q9 6 21.5 15.5t13.5 9.5q310 233 403 452q33 87 6 152
q-25 59 -89.5 91t-135.5 32q-101 0 -205 -58q37 -21 41 -75q7 -62 -10 -207q-33 -259 -39 -328z" />
    <glyph glyph-name="C" unicode="C" horiz-adv-x="1044" 
d="M918 211q-189 -223 -410 -223q-97 0 -175.5 41t-129.5 110.5t-82.5 152.5t-42.5 175q-22 160 5 326.5t99 308.5q73 150 197 253t274 103q101 0 156 -55q51 -52 63.5 -137t-9 -168.5t-66.5 -147.5q-15 -18 -33 -18q-24 0 -36 20t3 45q66 107 51 226q-7 61 -30.5 93
t-79.5 32q-21 0 -31 -2q-85 -14 -154.5 -71t-113 -134t-74.5 -173.5t-44.5 -182t-16.5 -167.5q-4 -187 45 -307q80 -188 247 -188q51 0 101 16q26 10 51 22.5t51 31.5t43.5 32.5t46.5 40.5t40.5 38t43 43t39.5 40q14 14 31 14q23 0 36 -21t-1 -46q-33 -55 -94 -123z" />
    <glyph glyph-name="D" unicode="D" horiz-adv-x="1263" 
d="M1087 293q-94 -147 -273.5 -261t-344.5 -114q-64 0 -105.5 30t-70.5 91q-8 20 -3.5 35.5t17.5 25.5q-7 2 -16 11q-99 65 -111 383q-20 369 56 784q-26 -4 -82 -16q-8 0 -13 -5q-6 -6 -27 -13t-32 -7q-15 0 -28.5 11t-18.5 26q-18 77 133 137q131 49 285 49
q221 0 392 -107t273 -306q106 -201 84 -437q-14 -162 -115 -317zM365 94q20 -20 30 -28t26.5 -14.5t39.5 -6.5q21 0 57 8q119 28 230 114t185.5 205t92.5 240q16 123 -23.5 248.5t-125 226t-199.5 152.5q-96 42 -221 49q-63 4 -95 2q10 -81 -4 -284q-14 -282 -4 -615
q0 -31 3.5 -107.5t7.5 -95.5q28 -9 34 -37t-16 -47q-6 -6 -18 -10z" />
    <glyph glyph-name="E" unicode="E" horiz-adv-x="1054" 
d="M836 63q-205 -172 -342 -172q-61 0 -112 30.5t-85.5 81.5t-57 105t-36.5 113q-30 141 -27 289v39q-74 -8 -84 -8q-38 0 -48 33t22 53q19 12 36 6q5 2 32.5 12.5t49.5 18.5q20 281 99 610q-79 -6 -160 -6q-32 0 -39 33t22 47q4 2 13.5 4t13.5 4q26 8 79 27.5t79 27.5
q243 76 416 76q157 0 184 -31q20 -23 9 -52t-42 -34q-30 -4 -87 -19t-85 -20q-153 -27 -274 -43v-4q0 -69 -23 -285q-3 -31 -8 -85t-9 -98.5t-7 -84.5q240 79 301 90q5 0 16 -1t16 -1q33 2 52 -23t13.5 -57.5t-34.5 -50.5q-3 -1 -13 -7.5t-16 -8.5q-22 -10 -122.5 -37.5
t-133.5 -34.5q-46 -12 -88 -18q-2 -10 -2 -29q-4 -172 25 -289q6 -26 15.5 -55.5t25.5 -64t39 -56.5t49 -22q17 0 37 4q69 18 211.5 105t204.5 144q13 13 28 13q26 0 41.5 -24t-0.5 -52q-22 -36 -58.5 -74.5t-60.5 -58.5t-75 -60z" />
    <glyph glyph-name="F" unicode="F" horiz-adv-x="1036" 
d="M504 33q1 -24 -14 -41t-37 -17q-18 0 -33 15q-24 21 -47 73q-4 7 -35 84q-35 93 -47 297q-4 102 -2 154q-65 -12 -94 -23q-20 -9 -37 2.5t-18.5 30.5t12.5 37q12 11 61 38t70 36q1 1 4 2t4 2q5 146 39 491v15l-56 -12q-74 -21 -106 -21q-60 -6 -68 -6q-39 0 -63 16
q-23 15 -18.5 43t30.5 37q7 1 40.5 16.5t37.5 16.5q41 21 113 47q314 125 555 125q61 0 110 -8q28 -5 70 -33t55 -51q15 -31 -2 -60.5t-51 -29.5q-19 0 -74 -11q-19 -3 -37 0q-154 0 -395 -43q4 -16 4 -26q8 -122 4 -447q86 19 139 19q57 0 150 -19q25 -5 35.5 -26
t1.5 -43.5t-33 -30.5q-110 -33 -164 -43q-36 -3 -131 -16q4 -142 8 -217q10 -109 13 -191q0 -9 -1 -83t5 -83q0 -3 1 -8t1 -8z" />
    <glyph glyph-name="G" unicode="G" horiz-adv-x="1103" 
d="M1018 299q-49 -93 -132.5 -180.5t-194 -148t-212.5 -60.5q-75 0 -139.5 28t-110.5 74.5t-80.5 108.5t-53.5 129t-25 137q-19 208 49 447q18 70 48.5 150.5t79 175.5t104.5 169.5t129.5 125t148.5 50.5q62 0 110.5 -27.5t77 -74t43.5 -100.5t17 -113q0 -50 -17 -140
t-20 -116q-1 -19 -13 -29t-28 -10q-17 0 -28.5 11.5t-10.5 31.5q0 15 4.5 41t5.5 37q19 131 8 207q-24 139 -123 139q-41 0 -84.5 -32.5t-76.5 -77t-66 -105.5t-52.5 -104.5t-35.5 -86.5q-104 -263 -96 -489q1 -49 8 -98.5t25.5 -103.5t45.5 -95t71 -67.5t98 -26.5
q85 0 176 61t159 142q49 58 83 123t14 106q-13 36 -74.5 51.5t-116.5 15.5q-59 0 -117 -6q-39 0 -52.5 37.5t14.5 65.5q18 17 76.5 26t103.5 9q74 0 139 -20.5t114 -71.5t54 -126q8 -89 -47 -190z" />
    <glyph glyph-name="H" unicode="H" horiz-adv-x="1118" 
d="M1016 10q17 -26 3 -54t-42 -28q-2 0 -6 1t-6 1q-132 28 -162 281q-13 127 -6 297q-37 -4 -107 -12q-116 -7 -246 -7q-13 0 -159 11q0 -26 -1 -58.5t-1 -35.5q0 -222 49 -259q28 -20 20.5 -53.5t-41.5 -36.5q-47 -3 -92 43.5t-67 100.5q-48 119 -48 325q-2 1 -5.5 2
t-4.5 2q-28 15 -21.5 46t33.5 34q2 163 32 444t71 343q18 24 47 24q39 0 51 -35q8 -15 12 -55q5 -75 -20 -481q-1 -18 -10 -248h12q23 1 189 19.5t190 19.5q62 6 121 6q9 169 39 443q3 21 8 61.5t8 65.5t6 60t4 64q-20 14 -20 39q0 37 12 56q17 26 51 26q36 0 62 -36.5
t33 -75.5q13 -71 10 -160q0 -27 -5.5 -120.5t-13.5 -227t-12 -207.5q27 -13 25 -47t-31 -47q-1 -10 -1.5 -23t-1 -21.5t-1.5 -13.5q-5 -230 0 -305q4 -106 43 -168z" />
    <glyph glyph-name="I" unicode="I" horiz-adv-x="458" 
d="M352 25q-21 -15 -45 -15q-25 0 -49 15.5t-39 40.5q-34 60 -57 178q-31 143 -23 413q9 245 51 469q2 17 29 209q-67 -86 -74 -114q0 -1 -2 -11t-2 -12q-9 -33 -39 -33q-19 0 -31.5 12.5t-9.5 34.5q8 54 75 152t108 104q27 3 45 -12q6 -4 14 -20q27 -37 31 -109
q4 -51 0 -156q-1 -18 -4.5 -116.5t-4.5 -126t-3.5 -114.5t-2.5 -125.5v-114.5t2 -126t5.5 -114.5t9.5 -122.5q1 -6 4 -42.5t4 -41.5q0 -1 1 -13t5 -14q19 -14 20 -37.5t-18 -37.5z" />
    <glyph glyph-name="J" unicode="J" horiz-adv-x="870" 
d="M698 410q-5 -57 -13.5 -108.5t-29 -115t-48.5 -109t-75.5 -77t-107.5 -31.5q-99 0 -181 77.5t-126 180.5q-77 173 -82 271q-1 22 11.5 34.5t31.5 12.5q36 0 45 -37q25 -101 83.5 -213.5t125.5 -159.5q54 -37 98 -29q26 6 46 40t28 68t12 69q13 99 17 200t3 261.5
t-1 201.5q0 172 10 299q-204 -16 -312 -16h-18q-38 2 -43.5 37t31.5 49q13 5 33 2q15 2 191.5 31t205.5 30q127 10 162 4q24 -4 35 -25t2.5 -43t-31.5 -30q-14 -7 -131 -24q14 -77 20 -175q30 -426 8 -675z" />
    <glyph glyph-name="K" unicode="K" horiz-adv-x="997" 
d="M324 6q-22 -22 -66 -22q-48 0 -80.5 43t-46 111.5t-18 119t-4.5 100.5q-29 30 -29.5 72.5t26.5 75.5q0 152 27 424q29 288 57 424q0 16 13 35q13 26 43 26q22 0 37 -18q24 -30 24 -168q0 -29 -22 -557q151 142 295 274q10 9 79 68.5t131.5 114.5t77.5 71q3 18 14.5 27.5
t24.5 9.5q14 0 27.5 -10.5t17.5 -28.5q5 -21 -6.5 -48t-39 -57.5t-43.5 -46.5t-44 -42q-50 -46 -152.5 -137.5t-152.5 -137.5q-153 -142 -223 -237q67 -11 217.5 -27t230.5 -31q123 -19 181 -104q19 -28 7 -59t-44 -35q-42 -7 -74 -7q-21 1 -397 45q-34 3 -123 17
q3 -147 16 -199q25 -12 31 -39t-12 -47z" />
    <glyph glyph-name="L" unicode="L" horiz-adv-x="937" 
d="M727 45q-85 -49 -153 -76.5t-138 -27.5q-83 0 -144 35.5t-95.5 97.5t-52 129.5t-23.5 148.5q-9 135 16 344q-15 -6 -35 -6q-16 0 -34 6q-23 9 -26.5 31.5t12 39t38.5 9.5q1 0 3.5 -1t4.5 -1.5t4 0.5q14 3 50 21q7 44 17 91t27.5 113.5t37.5 126t49 120.5t60.5 105
t73 71.5t85.5 27.5q55 0 82 -41q25 -38 18 -96q-16 -125 -99 -258t-190 -236q-48 -290 -26 -491q5 -35 9.5 -56t13 -55t21 -55.5t30 -44t44 -33t58.5 -10.5q44 0 90 16q67 21 185 85t132 71q6 4 19 4q29 0 39 -30t-15 -52q-34 -24 -188 -123zM504 1356q-30 -9 -59 -58
t-50 -118.5t-33 -118.5t-20 -90q64 81 119.5 184.5t58.5 177.5q0 10 -4 17t-12 6z" />
    <glyph glyph-name="M" unicode="M" horiz-adv-x="1339" 
d="M1229 -4q-31 -6 -60 10q-35 16 -65 62q-70 97 -76 440q-1 28 -5 201t-9 331.5t-10 200.5q-57 -80 -119 -211q-21 -45 -58.5 -130t-50.5 -114q-18 -46 -77 -188t-74 -172q-27 -56 -70 -70q-57 -16 -98 32t-62 122q-17 63 -33 140t-24.5 124.5t-25 146.5t-21.5 130
q-111 -259 -119 -729q-2 -32 -2.5 -123t2.5 -123q22 -20 13 -46t-35 -26q-15 0 -21 4q-22 14 -27 33q-7 13 -12.5 65.5t-5.5 77.5q-14 393 76 815q24 114 59 195q16 37 43 63.5t62 26.5q24 0 41.5 -8t30 -26t19.5 -32.5t17 -39.5q30 -102 51 -207q17 -73 43.5 -210.5
t30.5 -158.5q29 61 92.5 204t100.5 218q106 223 175 312q62 79 107 79q29 0 55.5 -28.5t43.5 -71.5t27.5 -80t15.5 -66q22 -122 31 -263t14 -310.5t12 -265.5q9 -126 12 -252q23 -19 18.5 -47t-32.5 -35z" />
    <glyph glyph-name="N" unicode="N" horiz-adv-x="1150" 
d="M305 -8q-13 -8 -35 -8q-30 0 -54 17.5t-39.5 49.5t-23.5 56t-16 57q-58 228 -41 541q14 278 76 579q10 38 21 70q7 26 29 42.5t48 16.5q14 0 29 -6q40 -23 47 -70q3 -19 2.5 -44t-1 -37.5t-4.5 -48t-5 -40.5q-3 -25 -18.5 -142.5t-20.5 -163t-14 -137t-11.5 -164
t-1.5 -144.5q4 -172 21 -266q34 55 86 198q40 111 104 319t90 287q146 447 306 447q41 3 79 -35q33 -35 50 -96q48 -161 36 -455q-1 -17 -12.5 -247.5t-11.5 -268.5q0 -1 -1 -44t-0.5 -76t3.5 -44q1 -1 2.5 -7t3.5 -7q25 -17 23.5 -47.5t-27.5 -42.5q-12 -6 -29 -6
q-47 0 -80.5 34t-48.5 89t-21 99.5t-7 90.5q-5 122 14.5 343.5t21.5 297.5q3 83 3 164q-4 101 -13 143q-54 -38 -113 -152.5t-91.5 -208.5t-59.5 -188q-3 -12 -27 -98t-31 -109t-28 -93.5t-33.5 -107.5t-32.5 -92t-40 -102q-16 -42 -44.5 -86.5t-58.5 -56.5z" />
    <glyph glyph-name="O" unicode="O" 
d="M961 434q-28 -90 -71 -165t-102.5 -136t-140.5 -95t-176 -34q-128 0 -221 64.5t-137.5 168t-46.5 232.5q-5 259 141 559q17 34 37 69.5t53 85t65 86t71 63t73 26.5q59 0 74 -51q10 -27 0 -59.5t-31 -53.5q-241 -241 -305 -576q-28 -139 -21 -235q9 -123 76.5 -191.5
t192.5 -68.5q69 0 127.5 26t99 67t73.5 99.5t53.5 115t35.5 122.5q41 197 16 399q-7 53 -22.5 110.5t-44 121t-64 112.5t-87 81t-110.5 32q-53 0 -102 -18q-16 -6 -33 -14t-29.5 -14.5t-31.5 -18.5t-28 -18t-30.5 -21t-27.5 -19q-11 -8 -25 -8q-27 0 -39 28.5t10 51.5
q73 70 168 115t187 45q78 0 143.5 -32.5t109 -83t76.5 -121t51 -138t29 -142.5q43 -297 -36 -567z" />
    <glyph glyph-name="P" unicode="P" horiz-adv-x="1130" 
d="M504 -66q22 -22 12 -50t-41 -31q-26 0 -56.5 29t-49.5 61q-69 105 -84 311q-16 241 41 620l28 165q27 165 33 192q0 1 -1 7t-1 7v12q-1 0 -2 -1t-2 -1q-98 -26 -217 -94q-29 -15 -58 -37q2 -18 -9.5 -31.5t-28.5 -13.5h-5q-24 2 -39 16t-14 35q5 41 53 89
q110 121 280.5 190.5t340.5 69.5q73 0 136.5 -14t120 -44t96 -84t53.5 -127q20 -109 -25 -233q-45 -118 -142.5 -239.5t-224 -213.5t-245.5 -123q-6 -121 2 -227q2 -48 14 -127.5t27 -103.5zM512 1090q-6 -87 -24.5 -260.5t-24.5 -260.5q67 36 143.5 100.5t144 141t114 163
t50.5 156.5q3 47 -16 81t-55.5 52.5t-80.5 26.5t-99 8q-73 0 -162 -14q6 -20 10 -65q4 -43 0 -129z" />
    <glyph glyph-name="Q" unicode="Q" horiz-adv-x="1089" 
d="M977 -147q18 -35 -2.5 -68t-54.5 -33q-21 0 -39 15q-67 53 -111 117t-96 165q-86 -45 -203 -45q-128 0 -221 64.5t-137.5 168t-46.5 232.5q-5 259 141 559q17 34 37 69.5t53 85t65 86t71 63t73 26.5q59 0 74 -51q10 -27 0 -59.5t-31 -53.5q-241 -241 -305 -576
q-28 -139 -21 -235q9 -123 76.5 -191.5t192.5 -68.5q68 0 124 24q1 1 9 5q-40 78 -94 221.5t-54 201.5q-2 26 12.5 46t36.5 20q17 0 34.5 -14t27.5 -31q16 -25 33.5 -54.5t29 -50t30.5 -58.5t25.5 -51.5t28 -59.5t25.5 -54q4 5 12 16.5t12 16.5q63 104 97 252q41 197 16 399
q-7 53 -22.5 110.5t-44 121t-64 112.5t-87 81t-110.5 32q-53 0 -102 -18q-16 -6 -33 -14t-29.5 -14.5t-31.5 -18.5t-28 -18t-30.5 -21t-27.5 -19q-11 -8 -25 -8q-27 0 -39 28.5t10 51.5q73 70 168 115t187 45q78 0 143.5 -32.5t109 -83t76.5 -121t51 -138t29 -142.5
q43 -297 -36 -567q-52 -164 -146 -272q13 -24 52.5 -94.5t60.5 -110.5q9 -18 24.5 -52.5t24.5 -51.5z" />
    <glyph glyph-name="R" unicode="R" horiz-adv-x="1175" 
d="M487 70q15 -25 2.5 -50.5t-38.5 -25.5q-28 0 -55 31.5t-41 61.5t-25 63q-19 10 -25 14q-30 26 -31.5 64.5t23.5 68.5q0 14 -2 20q-10 89 -12 183.5t4.5 196t14.5 181.5t22 191q4 21 12 88.5t8 83.5q2 2 2 6q-103 -20 -182 -57q11 -20 1.5 -41.5t-32.5 -24.5
q-14 -2 -43.5 -2t-38.5 4q-34 15 -38 49t15 70t50 62q88 77 232 119t274 42q120 0 232.5 -36t187.5 -111q64 -63 92 -145t16 -170q-42 -307 -569 -707q132 -2 292 -25t216 -71q28 -23 21.5 -59t-40.5 -48q-24 -8 -86 -8q-55 0 -136 6.5t-156.5 15t-94.5 9.5q-4 1 -16 2
t-31.5 2.5t-34.5 3.5q1 -6 3 -19.5t3 -19.5q4 -8 4 -18zM469 723q-7 -158 -4 -285q15 12 24 21q362 314 424 520q18 67 2 119q-41 119 -227 159q-101 23 -219 13q20 -82 14 -230q0 -44 -14 -317z" />
    <glyph glyph-name="S" unicode="S" horiz-adv-x="1144" 
d="M1040 123q-11 -37 -36 -64t-58 -42t-68 -22t-73 -7q-110 0 -240 40.5t-178 110.5q-20 32 -2.5 64.5t49.5 32.5q13 0 31 -11q27 -18 121.5 -35.5t148.5 -21.5q43 -6 86 -6q42 4 58 12q-24 41 -111.5 104.5t-172 113t-196 112t-131.5 74.5q-50 30 -87 56.5t-76.5 68.5
t-55.5 85q-39 89 -4 183q28 79 135 178q152 139 364.5 246t391.5 110q70 0 117.5 -29.5t54.5 -95.5q10 -84 -61 -186q-44 -68 -114 -129.5t-136 -71.5q-23 -3 -45 6q-22 8 -26 30t11 39t39 11q1 0 5 -1t5 -1q76 28 162 146q40 64 49 88q14 55 -4 65q-13 8 -41 8
q-98 0 -235.5 -57.5t-237.5 -124.5q-37 -26 -74 -55t-82.5 -70t-77.5 -84t-40 -78q-9 -27 10 -57q24 -40 123 -104.5t225 -134t146 -82.5q283 -173 329 -312q15 -49 2 -102z" />
    <glyph glyph-name="T" unicode="T" horiz-adv-x="968" 
d="M629 41q-16 -16 -47 -16q-49 0 -79.5 39t-41.5 92q-17 57 -23 125q-23 364 -4 665q13 207 31 297q-218 -18 -365 -18q-55 0 -65 4q-28 9 -32.5 40t20.5 48q15 9 236.5 54.5t256.5 49.5q125 19 195 19q106 0 221 -39q27 -11 35 -38t-6.5 -51t-42.5 -28q-45 -6 -293 -29
q2 -23 2 -71q0 -52 -4 -148.5t-5 -130.5q-3 -210 0 -416q0 -22 5.5 -170.5t5.5 -168.5q23 -10 30.5 -35t-6.5 -47q-12 -15 -24 -27z" />
    <glyph glyph-name="U" unicode="U" horiz-adv-x="1130" 
d="M465 33q-47 -24 -86 -19q-53 3 -107 43q-142 103 -170 426q-16 207 0 455q7 116 33 270.5t66 208.5q22 31 55 31q45 0 66 -41q18 -33 10 -98q-3 -31 -13.5 -112t-13.5 -126q-22 -214 -16 -418q6 -348 94 -442q10 -10 14 -8q57 33 168 276q89 212 185 541q5 17 20.5 67.5
t22.5 75t18 65.5t18.5 75.5t12.5 68.5q9 42 32.5 71.5t61.5 29.5q52 0 74 -46q20 -36 12 -96q-35 -242 -43 -332q-38 -322 -6 -593q12 -126 43 -185q37 -6 46 -41t-20 -55q-38 -23 -71 -23q-37 0 -70 19t-55 53q-73 110 -78 422q-62 -182 -125 -322q-85 -195 -178 -241z" />
    <glyph glyph-name="V" unicode="V" horiz-adv-x="1067" 
d="M981 963q-7 -80 -26.5 -194.5t-60 -268.5t-91.5 -281t-128.5 -216t-164.5 -89q-71 0 -125 51q-69 61 -126.5 196.5t-92 296.5t-54.5 296t-28 245q-10 142 -4 267q0 51 10 90q8 46 27 65q18 21 45 21q32 0 51 -31q25 -41 45 -313q33 -329 96 -586q83 -326 142 -395
q1 -1 6 -7t9 -10t7 -4q12 -2 43 29q42 50 76 127q105 225 170.5 499t69.5 521q0 106 -19 158q-23 25 -9.5 52t44.5 27q28 0 48.5 -26.5t31 -69t15.5 -73.5t7 -62q5 -121 -14 -315z" />
    <glyph glyph-name="W" unicode="W" horiz-adv-x="1515" 
d="M319 63q-51 -59 -102 -59q-48 0 -87.5 44.5t-53.5 105.5q-33 127 -4 325q46 293 196 645q2 5 25.5 61.5t41 96.5t41 84.5t38.5 58.5q25 25 59 25q51 0 72 -43q19 -43 6 -86q-6 -30 -46 -132t-87 -216t-53 -131q-76 -217 -101 -377q-25 -151 -12 -260q1 -4 2 -12.5
t2 -12.5q166 150 422 629q2 4 16.5 32t27 53t15.5 32q22 56 39 69q15 15 37 15q42 0 61 -39q9 -17 19 -111q20 -227 84 -403q85 -226 156 -226q28 0 57 43q46 78 61 236q15 169 0 338q-11 134 -69 348q-2 9 -10.5 26t-10.5 23q-12 27 3 50.5t42 23.5q15 0 21 -4
q12 -5 63 -66q75 -91 108.5 -245.5t35.5 -307.5q7 -222 -35 -379q-14 -53 -35 -97.5t-51.5 -86.5t-76 -66t-99.5 -24q-79 0 -144.5 54.5t-106 136t-69.5 182t-41.5 186t-13.5 154.5q-228 -437 -443 -693z" />
    <glyph glyph-name="X" unicode="X" horiz-adv-x="1099" 
d="M213 27q-15 -37 -53 -37q-44 0 -56 41q-21 78 21 186q61 148 186 326q23 33 113 157q-303 472 -334 539q-3 7 -10 22.5t-10 22.5q0 1 -6 15t-11 16q-23 10 -22 39t26 39q24 6 43 2q14 -2 35 -19q62 -39 129 -121q56 -65 135 -174q10 -13 31 -44.5t54.5 -80t62.5 -90.5
q13 18 41 54.5t41 54.5q27 32 128.5 160t121.5 157q9 13 25 38.5t30 44t31 30.5q11 8 24 8q26 0 36 -27t-13 -49l-6 -6q-41 -89 -166 -280q-11 -17 -42 -62.5t-81.5 -120t-85.5 -125.5q226 -337 297 -438q28 -46 61 -84q4 -7 40 -48t40 -50q14 -30 -0.5 -58.5t-44.5 -31.5
q-17 -3 -49 10t-53 25q-41 29 -90 79.5t-87 96t-89.5 117t-75.5 107t-68 101.5q-57 -86 -91.5 -140t-78 -134.5t-72.5 -151.5q-3 -10 -19 -43.5t-22 -42.5q-1 -1 -4.5 -7.5l-7 -13t-4.5 -9.5z" />
    <glyph glyph-name="Y" unicode="Y" horiz-adv-x="927" 
d="M741 -8q-28 -8 -47 -8q-55 4 -87 48.5t-42 106.5q-15 103 -12 246q0 210 37 455q-83 -148 -182 -283q-71 -94 -148 -94q-26 0 -49 10q-128 54 -141 283q-16 250 28 471q19 109 47 168q15 30 48 30q21 0 36 -18q11 -15 14.5 -50.5t1 -66t-7.5 -74.5t-6 -53
q-6 -77 -8.5 -169t6 -209t33.5 -158q7 -13 10 -15q5 0 9 4q23 12 67 69.5t74 102.5q136 215 254 480q17 34 24 92q5 35 27 60.5t55 25.5q30 0 53.5 -20.5t24.5 -53.5q1 -20 -9.5 -96t-16.5 -109q-3 -16 -16 -98t-16.5 -107t-14 -95.5t-14.5 -108t-10.5 -96t-9.5 -108
t-5 -99.5q-1 -55 2 -167t2 -169q0 -2 -1 -8.5t-1 -11t2 -5.5q29 -20 25 -55t-36 -47z" />
    <glyph glyph-name="Z" unicode="Z" horiz-adv-x="968" 
d="M850 172q-123 -80 -266 -134t-269 -54q-80 0 -149.5 31.5t-102.5 95.5q-25 55 -22 127q6 75 47 149q46 93 114 181t167 198q-20 16 -43 39q-19 29 -21 43q-1 26 13.5 41.5t33.5 15.5q16 0 27 -11.5t10 -33.5q6 -7 37 -31q37 39 111 113q15 15 61 60t76.5 76t58.5 63
q1 1 9.5 10.5t13.5 16t12 16t10 17t2 13.5q0 1 -2 4.5t-2 4.5q-37 41 -154.5 57t-226.5 16q-160 0 -200 -24q-12 -6 -21 -6q-27 0 -37.5 26.5t13.5 46.5q42 37 160.5 52.5t230.5 15.5q47 0 91.5 -4t100 -16.5t95.5 -33.5t68 -59.5t28 -89.5q0 -37 -14.5 -75.5t-44.5 -78.5
t-50.5 -64t-56.5 -62q-50 -58 -183 -195q18 -12 43 -29t39.5 -27.5t20.5 -15.5q24 -23 11.5 -52.5t-42.5 -29.5q-6 0 -20 7q-21 11 -64 41q-13 10 -53 36q-61 -69 -101.5 -118.5t-90.5 -125t-72 -136.5q-19 -44 -10 -72q4 -14 49 -27q27 -6 53 -6q32 0 123 14q28 4 188 42.5
t166 39.5q27 7 45.5 -11t16 -44.5t-26.5 -42.5z" />
    <glyph glyph-name="asciicircum" unicode="^" horiz-adv-x="647" 
d="M123 997q-22 -15 -43 -12q-23 3 -31.5 25.5t2.5 42.5q2 4 8.5 15.5t10 17.5t11 13t15.5 9q110 122 170 180q3 3 15.5 14t18 15t15.5 11t19.5 10.5t19.5 4.5q27 6 56 -10q37 -24 99 -121.5t85 -154.5q12 -27 -4.5 -49.5t-42.5 -22.5q-17 0 -33 16q-34 38 -87.5 113.5
t-72.5 99.5q-6 -5 -107.5 -103.5t-123.5 -113.5z" />
    <glyph glyph-name="asciicircum" unicode="&#x2c6;" horiz-adv-x="647" 
d="M123 997q-22 -15 -43 -12q-23 3 -31.5 25.5t2.5 42.5q2 4 8.5 15.5t10 17.5t11 13t15.5 9q110 122 170 180q3 3 15.5 14t18 15t15.5 11t19.5 10.5t19.5 4.5q27 6 56 -10q37 -24 99 -121.5t85 -154.5q12 -27 -4.5 -49.5t-42.5 -22.5q-17 0 -33 16q-34 38 -87.5 113.5
t-72.5 99.5q-6 -5 -107.5 -103.5t-123.5 -113.5z" />
    <glyph glyph-name="underscore" unicode="_" horiz-adv-x="1204" 
d="M1159 -289q-36 -3 -75.5 -1t-109.5 8t-77 6q-33 1 -235.5 -1t-386 -1t-234.5 8q-34 5 -40.5 39t24.5 49q21 14 45 14q6 0 18 -4q200 19 514 39q114 6 229 6q106 0 187 -8q101 -11 164 -55q29 -20 20.5 -55.5t-43.5 -43.5z" />
    <glyph glyph-name="grave" unicode="`" horiz-adv-x="387" 
d="M326 1032q29 -22 16 -56t-45 -34q-13 0 -25 6q-33 19 -192 123q-27 0 -37 25t8 47q18 24 47 24q49 0 228 -135z" />
    <glyph glyph-name="a" unicode="a" horiz-adv-x="671" 
d="M614 303q23 -31 4 -58.5t-55 -27.5q-33 0 -65.5 31t-46.5 65q-16 44 -23 119q-17 -33 -26.5 -50.5t-28.5 -45.5t-36.5 -42.5t-43.5 -26t-55 -11.5q-60 0 -107 32.5t-70 88.5q-34 73 -24 162q5 56 29.5 125.5t62.5 135t95 110t118 44.5q35 0 71 -17.5t62 -45.5q8 36 21 80
q7 22 24.5 34.5t38.5 12.5q36 0 53 -33q4 -8 6 -16.5t2.5 -19t0.5 -17t-1.5 -19.5t-1.5 -18q-3 -43 -9.5 -125t-9.5 -125t-4.5 -126t5.5 -126q0 -1 2 -25t5 -41.5t7 -23.5zM215 561q-6 -38 0.5 -77.5t30.5 -51.5q22 16 61 70q72 112 131 278q1 2 0 4t-3 5t-3 4
q-7 6 -26.5 11t-28.5 3q-38 0 -76 -49.5t-59.5 -105t-26.5 -91.5z" />
    <glyph glyph-name="b" unicode="b" horiz-adv-x="968" 
d="M291 -76q-19 -39 -62 -39q-59 0 -92 119q-26 52 -43.5 191.5t-19.5 232.5q-4 202 39 539q1 9 8.5 63t14.5 102t16.5 105.5t18.5 100.5t17 61q21 42 52 47q21 6 43.5 -7t33.5 -34q21 -42 17 -109q0 -60 -10 -135q-8 -78 -27.5 -234.5t-31 -280.5t-13.5 -236q-2 -76 2 -228
q151 682 295 785q50 32 104 32q120 0 211 -143q45 -77 56 -166t-13 -174q-41 -137 -167 -243.5t-263 -106.5q-68 0 -117 35q-1 -4 -17.5 -75.5t-30.5 -128.5t-21 -73zM389 319q21 -14 47 -14q27 0 62 14q93 37 168.5 110.5t91.5 162.5q19 100 -31 192q-41 70 -84 70
q-22 0 -49 -27q-116 -143 -205 -508z" />
    <glyph glyph-name="c" unicode="c" horiz-adv-x="503" 
d="M444 481q-94 -61 -176 -61q-106 0 -184 102q-30 40 -42.5 94t-6.5 107q23 170 121 295q89 106 178 106q74 0 119 -77q12 -24 16 -72q0 -5 -1.5 -26.5t-0.5 -33.5q3 -22 -10.5 -36.5t-32.5 -14.5q-13 0 -23.5 8.5t-13.5 22.5q-1 5 -5 37.5t-11 48.5q-5 11 -15.5 16.5
t-19.5 -0.5q-53 -37 -84.5 -120t-34.5 -160q-1 -38 19 -70t57 -49q58 -23 78 -23h43q39 3 50 -34.5t-20 -59.5z" />
    <glyph glyph-name="d" unicode="d" horiz-adv-x="819" 
d="M733 -39q-10 -23 -31.5 -37t-46.5 -14q-36 0 -61 27.5t-36 72.5t-15.5 80t-5.5 72q-12 166 -9 334q-96 -223 -231 -250q-56 -6 -102 22q-54 35 -89 103q-53 106 -57.5 234t41.5 237q38 100 108 165.5t167 65.5q60 0 91 -30t50 -91q16 0 26 -14q58 220 78 350q1 4 1 11.5
t1 11.5q0 20 9 47q12 51 63 51q25 0 43.5 -18t17.5 -48q0 -3 -1 -24.5t-1 -24.5q-6 -12 -6 -20q-28 -368 -32 -475q-18 -357 10 -731q20 -10 28 -29.5t2 -40.5q0 -1 -4 -15.5t-8 -21.5zM252 436q1 -2 4 -7t5 -8t4.5 -7t5 -5.5t5 -3.5t5.5 -1.5t6 2.5q31 23 39 30
q95 104 190 434q-12 -3 -33 -1t-30 8q-4 2 -24 25t-26 24q-2 1 -13 0l-11 -2q-45 -12 -74 -45q-34 -34 -67 -119q-28 -75 -25 -164t39 -160z" />
    <glyph glyph-name="e" unicode="e" horiz-adv-x="634" 
d="M575 381q-148 -74 -237 -74q-99 0 -183 67.5t-112 164.5q-28 96 8 192q42 122 142 208.5t221 86.5q48 0 89.5 -18.5t55.5 -59.5q23 -57 -5.5 -123.5t-84.5 -99.5q-43 -26 -100.5 -42.5t-106.5 -16.5q-19 0 -65 4q-6 -44 12 -82q23 -51 82 -78q46 -21 168 -25q5 0 46 1
t48 1q27 0 42.5 -20.5t10 -46.5t-30.5 -39zM338 887q-74 -42 -117 -133q61 6 152 44t100 79q0 26 -2 28q-4 4 -16 4q-62 6 -117 -22z" />
    <glyph glyph-name="f" unicode="f" horiz-adv-x="626" 
d="M360 -139q7 -30 -12 -53t-49 -23q-25 0 -47 20.5t-36.5 54t-23 60t-14.5 53.5q-43 188 -47 527q-41 0 -59 6q-22 9 -30 30.5t3 43.5q5 11 31 26q28 17 49 -4q1 0 3 1t3 1q0 207 29 422t94 346q27 66 82 96q28 19 63 19q54 0 98 -45t66 -103q25 -19 16 -48t-38 -29
q-12 0 -31 10t-25 20q-34 55 -79 66q-42 -44 -66 -250q-23 -218 -21 -338v-121q25 5 29 6q9 1 66.5 8.5t66.5 8.5q62 5 82 -13q27 -23 19.5 -57.5t-41.5 -46.5q-98 -32 -219 -45q7 -218 22 -371q1 -11 6 -51.5t6.5 -52.5t5 -52.5t2 -52t-1.5 -51.5q0 -1 -1 -9t-1 -9z" />
    <glyph glyph-name="g" unicode="g" horiz-adv-x="782" 
d="M688 127q-21 -64 -57 -124.5t-84.5 -111.5t-112 -82.5t-131.5 -31.5q-55 0 -119.5 37.5t-74.5 85.5q-6 27 11 49t44 22q12 0 20 -4q19 -8 67 -14.5t66 -3.5q46 5 99 47q102 88 125 227q5 27 8 54t3 59v53t-2.5 59.5t-4 53.5t-5.5 59.5t-5 54.5q-191 -270 -342 -270
q-107 0 -148 111q-35 101 36 254t169 241q93 84 170 84q62 0 100 -32q24 34 66 34q52 0 73 -47q19 -38 39.5 -240.5t22.5 -285.5q7 -205 -33 -338zM248 692q-46 -94 -37 -151q22 9 29 14q45 31 122 104q102 109 146 215q0 19 -4 23q-4 3 -11.5 11.5t-14 13.5t-13.5 6
q-35 6 -86 -45q-84 -94 -131 -191z" />
    <glyph glyph-name="h" unicode="h" horiz-adv-x="786" 
d="M279 246q-26 -23 -58 -23q-114 0 -149 242q-10 92 -6 280q4 98 38.5 329.5t63.5 297.5q16 33 49 33q25 0 41 -23q10 -15 14 -63q5 -60 -8 -215q-4 -48 -15.5 -165.5t-16.5 -182.5t-3.5 -161.5t15.5 -176.5q15 24 95.5 171.5t82.5 151.5q79 134 100 150q22 16 47 16
q47 0 68 -37q28 -40 48 -96.5t27.5 -98t16.5 -108.5q12 -108 12 -141q0 -18 2 -20q9 -28 -6 -50t-43 -22q-88 0 -116 176q-3 13 -9.5 60.5t-13.5 99t-8 59.5q-61 -100 -148 -268q-93 -192 -120 -215z" />
    <glyph glyph-name="i" unicode="i" horiz-adv-x="276" 
d="M195 1157q0 -34 -20 -60t-52 -26q-39 0 -59.5 34t-20.5 77q0 26 2.5 52.5t10 61.5t25.5 56.5t44 21.5q33 0 49 -31q10 -20 15.5 -82t5.5 -104zM233 438q3 -24 -13 -42.5t-40 -18.5q-26 3 -47.5 21.5t-34.5 46t-21 55.5t-11 57q-6 53 -3 109q7 148 46 178l16 8q11 8 22 8
q20 0 35 -22.5t13 -49.5q-1 -28 11.5 -127.5t20.5 -130.5q6 -33 6 -92z" />
    <glyph glyph-name="j" unicode="j" horiz-adv-x="348" 
d="M213 1161q1 -27 -16 -45t-41 -18q-31 0 -45 28q-21 39 -25 97t2 104q1 23 16 36t35 13q33 0 43 -30q23 -58 31 -185zM258 53q-7 -40 -22 -88t-39 -101.5t-60.5 -88.5t-77.5 -35q-38 0 -74 26.5t-51 65.5q-10 25 4 45.5t37 20.5q21 0 35 -17q10 -11 15 -6q16 26 35 111.5
t26 136.5q18 166 18 502q0 208 7 239q17 60 57 60q19 0 34.5 -11t16.5 -28q1 -4 9.5 -28t9.5 -28q37 -139 45 -380q4 -248 -25 -396z" />
    <glyph glyph-name="k" unicode="k" horiz-adv-x="684" 
d="M299 158q7 -25 -9 -45.5t-40 -20.5q-23 0 -48.5 23t-37.5 47q-60 87 -78 235q-25 216 -4 523q11 117 38.5 293.5t57.5 203.5q10 10 33 10q29 0 45 -22q18 -33 18 -215q-1 -67 -7.5 -216.5t-6.5 -230.5q0 -35 2 -53q34 32 83.5 69.5t95.5 71t59 43.5q33 29 59 29
q25 -1 33.5 -25.5t-8.5 -43.5q-3 -3 -8.5 -10.5t-8.5 -10.5q-34 -30 -112.5 -90t-116.5 -96q158 11 178 10q63 0 94 -10q34 -12 36 -50t-32 -55q-94 -35 -247 -35q-55 0 -99 9q9 -143 27 -283q0 -39 4 -55z" />
    <glyph glyph-name="l" unicode="l" horiz-adv-x="376" 
d="M287 78q-1 -24 -17.5 -37.5t-38.5 -13.5q-29 0 -57 41.5t-46.5 99t-30.5 107.5t-15 77q-7 77 -8.5 157.5t3.5 172.5t10 152t15 167q1 12 9.5 85.5t9.5 84.5q18 119 31 162q0 2 5 15t5 16q3 22 19 34.5t36 12.5q27 0 46 -27t22 -57q13 -74 6 -201q-3 -90 -16.5 -297.5
t-14.5 -318.5q-2 -65 12 -250q0 -12 7.5 -91t7.5 -91z" />
    <glyph glyph-name="m" unicode="m" horiz-adv-x="1009" 
d="M926 272q-21 -18 -47 -18q-31 0 -57 27t-29 65q-2 48 -1 121.5t4 177.5t3 121q-50 -60 -224 -305q-14 -23 -20 -27l-18 -12q-22 -19 -48 -19q-39 0 -65 37q-15 22 -23 55.5t-9 50.5t-3 62q-3 -4 -78 -131.5t-92 -148.5q-26 -33 -69 -33q-54 0 -84 43q-24 40 -27 88
q-5 60 12 205q15 130 43 200q3 8 12.5 22.5t12.5 18.5q16 23 39 23q42 0 55 -64q3 -64 1.5 -96t-7 -96.5t-6.5 -97.5q20 29 53.5 83t44.5 72q45 72 80 103q20 20 53 20q25 0 43 -13t27 -37t13 -43t7 -46q1 -16 2 -47t2 -47q36 46 97 135.5t82 118.5q75 96 133 96
q24 0 45 -21q8 -8 14 -12q28 -28 43 -86q33 -146 29 -368q0 -88 -8 -119q-7 -36 -35 -58z" />
    <glyph glyph-name="n" unicode="n" horiz-adv-x="720" 
d="M666 340q-14 -35 -54 -35q-44 0 -75.5 40t-34.5 87q-2 13 -17 151t-20 160q-65 -94 -139 -241q-4 -8 -17.5 -37t-20.5 -42t-19.5 -33.5t-24.5 -35.5q-34 -39 -78 -39q-43 0 -77.5 35.5t-43.5 81.5q-12 61 -4 189q6 82 25 176t51 145q14 21 39 27q25 4 41.5 -15.5
t19.5 -48.5q4 -27 -2 -180t-6 -156q14 21 84 135.5t115 169.5q4 5 11.5 15.5t12.5 17t13 14t16 11.5q15 10 41 10q67 0 119 -111q39 -89 55 -268q12 -122 10 -147q0 -36 -10 -58q-1 -1 -5 -9t-5 -9z" />
    <glyph glyph-name="o" unicode="o" horiz-adv-x="610" 
d="M522 563q-44 -54 -115.5 -87.5t-142.5 -33.5q-79 0 -145.5 36t-85.5 106q-13 50 4 114q36 113 106 201q37 48 93 84.5t98 22.5q29 -7 47 -25q2 -2 12 -2q34 -1 68.5 -20t58.5 -48q63 -72 64 -174t-62 -174zM197 647q23 -20 63 -20q63 0 127 39q49 34 53 63
q8 39 -11.5 78.5t-55.5 52.5q-2 1 -30.5 7t-39.5 16q-30 -39 -66 -115.5t-40 -120.5z" />
    <glyph glyph-name="p" unicode="p" horiz-adv-x="860" 
d="M236 -162q-16 -4 -25 -4q-26 0 -45.5 12t-32 36t-18.5 42t-13 47q-44 251 -30 633q9 201 16 258q13 133 31 189q-3 21 9.5 36t31.5 15q14 0 26 -12q26 -11 40 -55t18 -89q12 -99 12 -346q10 47 22.5 91t36 99t51.5 94.5t71 67t93 27.5q79 0 165 -75.5t116 -155.5
q21 -66 7.5 -139t-54.5 -130q-58 -79 -147.5 -126.5t-186.5 -47.5q-60 0 -115 21q-4 -37 -7 -80t-6 -94t-5 -80q0 -146 -14 -187q-6 -15 -19 -28t-28 -19zM408 731q-51 -102 -78 -295q69 -1 137 25t119 74q72 68 69 139q-2 17 -14 45q-21 38 -57 80.5t-64 42.5
q-53 0 -112 -111z" />
    <glyph glyph-name="q" unicode="q" horiz-adv-x="663" 
d="M559 -213q-21 -16 -47 -16q-46 0 -84.5 62t-60.5 144q-57 195 -15 498q-27 -34 -40.5 -50t-41 -38t-53.5 -29q-10 -4 -33 -4q-54 0 -94 43.5t-49 104.5q-14 95 25 209q67 184 182 252q45 30 96 30q41 0 75 -25.5t56 -64.5q11 33 32 57.5t50 24.5q26 0 46.5 -17t23.5 -46
q2 -13 -4.5 -48t-15 -67t-19.5 -71t-13 -46q-63 -247 -57 -471q2 -128 29 -348q26 -12 30 -39.5t-18 -44.5zM233 688q-31 -90 -26 -149l18 18q93 91 203 266q-4 4 -25 41q-6 8 -34 2q-41 -16 -79.5 -71t-56.5 -107z" />
    <glyph glyph-name="r" unicode="r" horiz-adv-x="593" 
d="M227 311q-21 -24 -53 -24t-63 28t-41 68q-14 51 -17 115q-8 69 -10 224t10 224q4 18 18.5 28.5t32.5 10.5q28 0 43 -27q12 -23 29.5 -109t24.5 -136q41 129 98 198q58 62 123 62q37 0 75.5 -20t63.5 -52q21 -28 6 -59t-47 -31q-6 0 -18 4q-6 2 -32.5 3.5t-29.5 2.5
q-3 0 -12 1.5t-16 1t-11 -4.5q-32 -20 -64.5 -107.5t-48.5 -156.5t-28 -137q-2 -9 -5 -28t-5 -30t-8 -25.5t-15 -23.5z" />
    <glyph glyph-name="s" unicode="s" horiz-adv-x="477" 
d="M436 504q-33 -53 -135 -111.5t-164 -58.5q-36 0 -66 17t-36 48q-6 29 15 49t50 11q106 42 176 104q-23 20 -82 64t-88 71q-52 48 -65 84q-17 47 0 86q19 49 79.5 96t110.5 48q57 0 86 -33q20 -23 8 -48.5t-38 -25.5q-14 0 -27 13q-6 6 -10 6q-28 -11 -66 -74q-2 -2 0 -4
t6 -4.5t5 -3.5q17 -12 52 -36.5t55.5 -39.5t48 -38t48.5 -44q42 -42 50 -82q12 -48 -13 -94z" />
    <glyph glyph-name="t" unicode="t" horiz-adv-x="512" 
d="M387 121q-30 -10 -72 -10q-79 0 -118 28q-32 28 -45 62q-29 68 -37 213q-5 112 -2 248h-4q-7 1 -25.5 10t-24.5 14q-23 22 -11 50t40 28q7 0 23 -8q2 -2 6 -2q20 496 82 637q14 36 55 36t55 -38q13 -37 13 -41q5 -46 0 -189q-4 -83 -21 -373q55 11 90 13q24 3 51 -4
q34 -12 36 -48t-29 -55q-22 -13 -46 -16q-18 -5 -108 -14q-12 -262 -12 -283q-3 -63 2 -113q0 -29 8 -37q26 -29 72 -22q24 2 38.5 -16t10 -39.5t-26.5 -30.5z" />
    <glyph glyph-name="u" unicode="u" horiz-adv-x="739" 
d="M362 358q-64 -84 -137 -84q-54 0 -99.5 43t-64.5 105q-16 55 -18.5 125.5t1.5 116.5t15 127q31 208 107 208q21 0 37 -13t20 -34q10 -50 6 -127q0 -12 -4 -89t-4 -87q0 -132 19 -186q33 30 53 65q21 34 42.5 76t35.5 72.5t37 82t34 75.5q5 8 29 69.5t29 69.5q29 45 69 45
q48 0 70 -43q6 -12 9 -44t3 -60t-1 -66t-1 -43q0 -212 25 -356q27 -12 31 -41t-19 -48q-14 -11 -31 -18q-15 -6 -28 -6q-36 0 -63 23.5t-42 57t-24.5 78t-12.5 77.5t-4 65q-6 -13 -20 -47t-22 -51.5t-21.5 -45t-27 -49.5t-28.5 -43z" />
    <glyph glyph-name="v" unicode="v" horiz-adv-x="632" 
d="M569 649q-11 -59 -33 -124t-57.5 -136t-89.5 -116.5t-117 -45.5q-160 0 -215 394q-17 147 -12 258q0 61 6 90q3 26 19.5 47.5t40.5 21.5q29 0 41 -28q0 -5 4 -9q5 -8 14.5 -43t11.5 -49q10 -39 43 -218.5t70 -270.5q35 33 63 77.5t48 103.5t30 97.5t25 104.5q1 6 8 50.5
t13.5 85t9.5 50.5q9 39 47 39q16 0 29 -9.5t16 -27.5q23 -129 -15 -342z" />
    <glyph glyph-name="w" unicode="w" horiz-adv-x="1005" 
d="M477 573q-164 -348 -299 -350q-44 0 -73 19t-42 53.5t-17.5 66.5t-4.5 74q2 128 33.5 290.5t85.5 252.5q19 29 53 29t43 -33q7 -14 4 -27q0 -19 -2 -41t-4.5 -38t-7 -42t-6.5 -39q-37 -240 -33 -356q45 47 90 115t67 108t70 131q1 2 10.5 19t18 31t12.5 18q21 18 47 18
q27 0 45 -18q23 -21 27 -76q1 -8 3.5 -36t4 -41t4.5 -35t7.5 -39.5t11.5 -34.5q15 -38 46 -67t68 -29q18 0 31 10q38 32 47.5 122.5t3.5 170.5q-2 25 -16.5 70t-16.5 51q-7 28 9.5 50.5t42.5 22.5q15 0 30 -12q9 -9 21 -25q80 -103 76 -270q0 -61 -10.5 -117.5t-34 -112.5
t-71 -90t-112.5 -34q-97 0 -167 70.5t-95 170.5z" />
    <glyph glyph-name="x" unicode="x" horiz-adv-x="778" 
d="M115 291q-49 -7 -73 35t-5 90q8 21 19 40.5t30 42t28.5 33t37 37t32.5 31.5q6 6 20.5 19t38.5 34.5t42 38.5q-9 9 -11 13q-43 47 -60 66.5t-47 60.5t-48 77q-44 99 -45 109q0 23 14 37t33 14q16 0 26.5 -11t10.5 -32q0 -6 6.5 -15t11.5 -12q16 -18 36.5 -37.5t36 -32.5
t41.5 -34t38 -31q4 -3 29 -24.5t44 -36.5q129 119 174 168q2 2 14.5 18t24 30t24 28.5t17.5 17.5q8 8 28 16.5t30 8.5q25 0 35 -21t-5 -43q-3 -22 -20 -39q-16 -19 -236 -260q63 -53 129.5 -123t88.5 -121q17 -33 -3 -64.5t-53 -31.5q-16 0 -33 10q-10 3 -16 9
q-17 11 -72.5 54t-68.5 56l-86 86q-106 -123 -162 -205q-40 -50 -47 -67q-12 -36 -49 -39z" />
    <glyph glyph-name="y" unicode="y" horiz-adv-x="696" 
d="M592 -143q-18 -9 -37 -9q-37 0 -70 26.5t-51 66.5q-20 51 -24 147q-4 107 22 361q-42 -71 -91.5 -115.5t-115.5 -44.5q-45 0 -79 22.5t-52.5 55.5t-30 79t-15 83.5t-3.5 78.5q0 49 7.5 129.5t33.5 169t64 88.5q24 0 40 -20t7 -45q5 -47 0 -189q-4 -162 18 -252
q7 -37 18 -45q3 -4 9 2q45 20 92 95q28 44 86 168t65 165q12 59 25 82q19 37 61 37q32 0 54 -23.5t16 -60.5l-2 -4q1 -53 -26 -401.5t-27 -394.5q-3 -83 14 -156q28 -19 25.5 -51.5t-33.5 -44.5z" />
    <glyph glyph-name="z" unicode="z" horiz-adv-x="634" 
d="M584 432q-82 -48 -186 -76t-199 -28q-58 0 -99 15t-61 60q-14 35 -4 76q7 36 61 120.5t123.5 181t79.5 112.5q-36 13 -105 22.5t-98 18.5q-23 8 -29 30.5t7 42t37 19.5q20 0 32 6q56 6 115 6q95 0 143 -30q35 -22 50 -55.5t6 -73.5q-10 -41 -56 -115
q-23 -34 -84.5 -117.5t-91.5 -130.5q7 1 89 9.5t152.5 15t90.5 6.5q28 0 44.5 -22t12 -50t-29.5 -43z" />
    <glyph glyph-name="asciitilde" unicode="~" horiz-adv-x="804" 
d="M739 717q-17 -54 -64 -83.5t-106 -29.5q-50 0 -94 20t-80.5 58.5t-60.5 74t-53 85.5q-33 -33 -117 -129q-2 -20 -15 -32t-32 -9h-4q-39 -3 -53 36.5t3 77.5q26 66 100 152t132 86q56 0 100 -70q11 -16 34 -54.5t42.5 -65t42.5 -46.5q38 -30 78 -30q47 0 41 41l-6 24
q-7 25 7.5 45.5t37.5 20.5q21 0 39.5 -20.5t25.5 -43.5q19 -48 2 -108z" />
    <glyph glyph-name="uni00A0" unicode="&#xa0;" horiz-adv-x="614" 
 />
    <glyph glyph-name="exclamdown" unicode="&#xa1;" horiz-adv-x="434" 
d="M338 1272q-36 -45 -98 -45q-40 0 -65 24t-17 66q11 52 82 67q10 1 28.5 -0.5t24.5 -1.5q41 0 56.5 -39t-11.5 -71zM326 -221q9 -31 -13.5 -52.5t-56.5 -21.5t-61.5 24.5t-44.5 59.5q-17 38 -28.5 89.5t-14.5 81t-9 95.5q-16 204 11 459q16 137 28 207q16 82 33 111
q11 18 27 30q13 10 30 10q25 0 39 -20l2 -4q21 -21 25 -72q2 -24 -3 -114.5t-11 -188.5t-7 -115q-2 -40 -2.5 -84.5t0 -78.5t2.5 -86l3 -78t4 -86l4 -80q1 -8 2 -24.5t2 -24.5q33 -10 39 -37z" />
    <glyph glyph-name="dieresis" unicode="&#xa8;" horiz-adv-x="536" 
d="M117 1092q-9 -27 -37 -27q-16 0 -29 12t-12 31q1 11 0 20t0.5 20t5.5 19q13 25 41 25q17 0 47 -10q23 -5 31 -26t-3 -40.5t-34 -21.5q-1 -1 -5 -1t-5 -1zM475 1114q21 -10 24 -31t-11 -37t-37 -12q-7 1 -16 2t-20.5 2t-17.5 2q-21 1 -31.5 16t-8 34.5t17.5 33.5
q8 8 27.5 16.5t29.5 8.5q15 0 27.5 -10t15.5 -25z" />
    <glyph glyph-name="guillemotleft" unicode="&#xab;" horiz-adv-x="1286" 
d="M633 416q-11 -22 -45 -29.5t-58 0.5q-6 2 -46 16.5t-46 16.5q-188 75 -262 119q-63 34 -94 84q-32 59 -14 120q17 56 75.5 116t138.5 110.5t146.5 85.5t130.5 63q18 7 35 4q23 8 39.5 -5.5t14.5 -35t-23 -34.5q-9 -16 -25 -25q-70 -34 -162 -100.5t-155 -126.5
q-10 -9 -36 -36.5t-32 -37.5q-7 -13 -4 -16q5 -9 30 -27t40 -27q38 -19 81.5 -36.5t99 -38t83.5 -31.5q55 -21 73 -43q15 -15 20 -41t-5 -45zM1061 588q-287 0 -402 41q-45 14 -65 43q-13 17 -15 43t7 47q26 65 174 135q14 0 20 6q53 24 182.5 68t170.5 47q8 2 59 2
q29 -2 37 -30.5t-17 -45.5q-9 -7 -32.5 -8t-26.5 -2q-151 -35 -326 -133q-3 0 -16 -13q-50 -30 -68 -43q33 -7 95.5 -14.5t87.5 -11.5q10 -2 75.5 -17.5t75.5 -17.5q25 -7 31.5 -30t-7.5 -44t-40 -22z" />
    <glyph glyph-name="uni00AD" unicode="&#xad;" horiz-adv-x="0" 
 />
    <glyph glyph-name="macron" unicode="&#xaf;" horiz-adv-x="628" 
d="M549 950q-160 -4 -240 -4q-213 0 -237 21q-3 2 -13.5 6t-13.5 8q-22 25 -6 53.5t47 28.5q9 0 25 -8q55 3 228.5 -2t219.5 -13q25 -4 33 -26t-4.5 -42.5t-38.5 -21.5z" />
    <glyph glyph-name="acute" unicode="&#xb4;" horiz-adv-x="364" 
d="M133 930q-14 -23 -39 -23q-21 0 -35.5 16.5t-13.5 41.5q4 53 145 178q11 11 74 53q9 6 19 6q28 0 37 -30t-17 -50q-5 -2 -17.5 -10t-15.5 -12q-3 -5 -17.5 -23t-31 -37.5t-18.5 -21.5q-57 -68 -70 -88z" />
    <glyph glyph-name="cedilla" unicode="&#xb8;" horiz-adv-x="403" 
d="M403 -115q-11 -64 -84 -142.5t-133 -78.5q-17 0 -30 8q-28 15 -25.5 45.5t31.5 44.5q4 2 45 43q4 4 13.5 14t14 15t12 14.5t12 16t9 15.5t6.5 18q-16 16 -143 67q-52 25 -70 51q-23 38 -10 82q11 38 47 74q12 14 55 60.5t52 54.5q11 14 28 14q24 0 36 -21t-5 -44
q-6 -12 -6 -13q-3 -12 -21 -40t-40.5 -58t-26.5 -37q14 -7 96 -37q75 -33 100 -56q8 -7 15 -15q29 -37 22 -95z" />
    <glyph glyph-name="guillemotright" unicode="&#xbb;" horiz-adv-x="1189" 
d="M1108 633q-49 -81 -219 -166.5t-262 -85.5q-30 0 -56 18t-20.5 47.5t33.5 49.5q6 5 28 14.5t43 18t46 18t28 10.5q236 95 266 145q-6 13 -37.5 41.5t-46.5 36.5q-26 16 -136 77t-165 101q-27 20 -30 50t20 53q11 13 35.5 24t44.5 11q2 0 5.5 -1t4.5 -1q26 -7 28 -34
t-20 -42q199 -81 297 -139q66 -38 99 -78q32 -36 35.5 -81.5t-21.5 -86.5zM225 485q-8 -4 -22 -4q-32 0 -50 28t-1 58q15 30 22 37q42 40 139.5 103.5t139.5 103.5q-34 17 -64 29q-24 9 -114 39.5t-138 50.5q-49 17 -65 31q-17 17 -12.5 43.5t26.5 35.5q6 3 26.5 8t26.5 5
q27 3 41 -25q356 -52 418 -135q29 -40 20 -86q-6 -47 -43 -84q-50 -58 -163 -135t-187 -103z" />
    <glyph glyph-name="questiondown" unicode="&#xbf;" horiz-adv-x="712" 
d="M440 1194q1 -22 -12 -35.5t-29 -13.5q-35 0 -41 39q0 3 -3 4t-8 1t-7 1q-39 10 -51 49.5t12 73.5q22 35 70 35q50 0 67 -45q0 -5 4 -9q12 -18 11.5 -42t-15.5 -42q-1 -2 -0.5 -4.5t1.5 -6.5t1 -5zM825 -203q-30 -22 -170 -22q-214 0 -405 41q-94 20 -141 41
q-29 11 -52 34.5t-30 51.5q-18 68 43 157q52 76 171.5 197.5t153.5 161.5q49 57 64 94q9 27 -6 57q-14 28 -56.5 77.5t-56.5 78.5q-22 45 4.5 85t69.5 40q49 0 117.5 -78t93.5 -135q37 -84 4 -182q-39 -101 -174 -232q-21 -20 -86 -81t-106.5 -104t-76.5 -89
q112 -39 294.5 -72t291.5 -33q35 0 41 -2q1 -1 14 6q14 7 21 7q28 0 37 -28t-17 -48q-15 -12 -32 -19q-9 0 -11 -4z" />
    <glyph glyph-name="Agrave" unicode="&#xc0;" horiz-adv-x="901" 
d="M797 53q19 -29 2 -61.5t-49 -32.5q-2 0 -6.5 1t-6.5 1q-84 19 -129.5 80.5t-56.5 151.5q-10 81 -4 155q-135 -33 -287 -33h-29q-27 -104 -65 -225q-2 -5 -6.5 -23t-9 -28.5t-11.5 -18.5q-12 -12 -26 -12q-24 0 -37.5 22.5t0.5 45.5q1 1 4 10t4 10q11 52 53 219
q-74 4 -94 11q-22 9 -26.5 31t10.5 39t39 12q43 -8 96 -5q85 299 229 709q20 52 45.5 108.5t64.5 128.5t84 118t85 46t68 -33t40.5 -84.5t17.5 -94t5 -80.5q2 -125 -8.5 -265.5t-28.5 -309.5t-25 -265q-5 -130 0 -172q2 -14 10.5 -54t12.5 -51q4 -8 9.5 -16.5t13.5 -18.5
t12 -16zM823 1714q27 -23 15.5 -55.5t-43.5 -32.5q-7 0 -19 4q-102 57 -125 72q-35 26 -39 47q-6 24 7.5 41.5t35.5 17.5q13 0 25 -6q1 -1 11 -6t11 -6q12 -6 59.5 -36t61.5 -40zM414 903q-61 -169 -152 -479q196 42 250 51q4 1 10 1.5t15.5 1t17.5 1.5q3 34 37 356t35 490
q-57 -79 -115.5 -197t-97.5 -225z" />
    <glyph glyph-name="Aacute" unicode="&#xc1;" horiz-adv-x="901" 
d="M797 53q19 -29 2 -61.5t-49 -32.5q-2 0 -6.5 1t-6.5 1q-84 19 -129.5 80.5t-56.5 151.5q-10 81 -4 155q-135 -33 -287 -33h-29q-27 -104 -65 -225q-2 -5 -6.5 -23t-9 -28.5t-11.5 -18.5q-12 -12 -26 -12q-24 0 -37.5 22.5t0.5 45.5q1 1 4 10t4 10q11 52 53 219
q-74 4 -94 11q-22 9 -26.5 31t10.5 39t39 12q43 -8 96 -5q85 299 229 709q20 52 45.5 108.5t64.5 128.5t84 118t85 46t68 -33t40.5 -84.5t17.5 -94t5 -80.5q2 -125 -8.5 -265.5t-28.5 -309.5t-25 -265q-5 -130 0 -172q2 -14 10.5 -54t12.5 -51q4 -8 9.5 -16.5t13.5 -18.5
t12 -16zM621 1688q-38 -10 -52.5 27t17.5 59q22 15 87 40t87 25q24 0 35 -20.5t-2 -42.5q-7 -12 -41 -27q-10 -10 -15 -10q-11 -5 -35.5 -18t-43.5 -21t-37 -12zM414 903q-61 -169 -152 -479q196 42 250 51q4 1 10 1.5t15.5 1t17.5 1.5q3 34 37 356t35 490
q-57 -79 -115.5 -197t-97.5 -225z" />
    <glyph glyph-name="Acircumflex" unicode="&#xc2;" horiz-adv-x="901" 
d="M797 53q19 -29 2 -61.5t-49 -32.5q-2 0 -6.5 1t-6.5 1q-84 19 -129.5 80.5t-56.5 151.5q-10 81 -4 155q-135 -33 -287 -33h-29q-27 -104 -65 -225q-2 -5 -6.5 -23t-9 -28.5t-11.5 -18.5q-12 -12 -26 -12q-24 0 -37.5 22.5t0.5 45.5q1 1 4 10t4 10q11 52 53 219
q-74 4 -94 11q-22 9 -26.5 31t10.5 39t39 12q43 -8 96 -5q85 299 229 709q20 52 45.5 108.5t64.5 128.5t84 118t85 46t68 -33t40.5 -84.5t17.5 -94t5 -80.5q2 -125 -8.5 -265.5t-28.5 -309.5t-25 -265q-5 -130 0 -172q2 -14 10.5 -54t12.5 -51q4 -8 9.5 -16.5t13.5 -18.5
t12 -16zM934 1651q9 -30 -8.5 -54t-44.5 -24q-16 0 -29 8q-21 13 -38.5 33.5t-37.5 50.5t-31 43q-31 -7 -62 -24.5t-66 -42t-56 -35.5q-14 -7 -24 -7q-18 0 -31 11.5t-14 29.5q-3 19 8.5 34t31.5 16q84 71 121 96q69 42 113 33q41 -6 98 -65t70 -103zM414 903
q-61 -169 -152 -479q196 42 250 51q4 1 10 1.5t15.5 1t17.5 1.5q3 34 37 356t35 490q-57 -79 -115.5 -197t-97.5 -225z" />
    <glyph glyph-name="Atilde" unicode="&#xc3;" horiz-adv-x="901" 
d="M797 53q19 -29 2 -61.5t-49 -32.5q-2 0 -6.5 1t-6.5 1q-84 19 -129.5 80.5t-56.5 151.5q-10 81 -4 155q-135 -33 -287 -33h-29q-27 -104 -65 -225q-2 -5 -6.5 -23t-9 -28.5t-11.5 -18.5q-12 -12 -26 -12q-24 0 -37.5 22.5t0.5 45.5q1 1 4 10t4 10q11 52 53 219
q-74 4 -94 11q-22 9 -26.5 31t10.5 39t39 12q43 -8 96 -5q85 299 229 709q20 52 45.5 108.5t64.5 128.5t84 118t85 46t68 -33t40.5 -84.5t17.5 -94t5 -80.5q2 -125 -8.5 -265.5t-28.5 -309.5t-25 -265q-5 -130 0 -172q2 -14 10.5 -54t12.5 -51q4 -8 9.5 -16.5t13.5 -18.5
t12 -16zM864 1683q-12 -38 -43 -62t-67 -24q-27 0 -54 17t-41.5 34t-35.5 46q-17 -6 -52 -29q-1 -1 -10 -5.5t-10 -6.5q-13 -13 -29 -13q-28 0 -40 30t12 56q23 25 68.5 54.5t70.5 29.5q27 0 43 -16q5 -4 38 -44.5t42 -45.5q22 11 22 20q-4 22 9.5 38t33.5 16q23 0 35 -23
q19 -39 8 -72zM414 903q-61 -169 -152 -479q196 42 250 51q4 1 10 1.5t15.5 1t17.5 1.5q3 34 37 356t35 490q-57 -79 -115.5 -197t-97.5 -225z" />
    <glyph glyph-name="Adieresis" unicode="&#xc4;" horiz-adv-x="903" 
d="M797 53q19 -29 2 -61.5t-49 -32.5q-2 0 -6.5 1t-6.5 1q-84 19 -129.5 80.5t-56.5 151.5q-10 81 -4 155q-135 -33 -287 -33h-29q-27 -104 -65 -225q-2 -5 -6.5 -23t-9 -28.5t-11.5 -18.5q-12 -12 -26 -12q-24 0 -37.5 22.5t0.5 45.5q1 1 4 10t4 10q11 52 53 219
q-74 4 -94 11q-22 9 -26.5 31t10.5 39t39 12q43 -8 96 -5q85 299 229 709q20 52 45.5 108.5t64.5 128.5t84 118t85 46t68 -33t40.5 -84.5t17.5 -94t5 -80.5q2 -125 -8.5 -265.5t-28.5 -309.5t-25 -265q-5 -130 0 -172q2 -14 10.5 -54t12.5 -51q4 -8 9.5 -16.5t13.5 -18.5
t12 -16zM584 1657q-35 -35 -58 -35q-22 0 -36 18.5t-7 42.5q3 17 17 31q13 11 45 23q22 7 39.5 -7.5t17 -35t-17.5 -37.5zM872 1610q-26 -7 -43 12.5t-8 44.5q5 12 24 25.5t34 13.5q24 0 35 -24t-7 -46q-9 -13 -35 -26zM414 903q-61 -169 -152 -479q196 42 250 51
q4 1 10 1.5t15.5 1t17.5 1.5q3 34 37 356t35 490q-57 -79 -115.5 -197t-97.5 -225z" />
    <glyph glyph-name="Aring" unicode="&#xc5;" horiz-adv-x="899" 
d="M797 53q19 -29 2 -61.5t-49 -32.5q-2 0 -6.5 1t-6.5 1q-84 19 -129.5 80.5t-56.5 151.5q-10 81 -4 155q-135 -33 -287 -33h-29q-27 -104 -65 -225q-2 -5 -6.5 -23t-9 -28.5t-11.5 -18.5q-12 -12 -26 -12q-24 0 -37.5 22.5t0.5 45.5q1 1 4 10t4 10q11 52 53 219
q-74 4 -94 11q-22 9 -26.5 31t10.5 39t39 12q43 -8 96 -5q85 299 229 709q41 113 98.5 220.5t122.5 158.5q-53 27 -79 76t-11 106q12 56 51 68q-13 25 -1 48t36 23q4 0 48 -17t46 -19q108 -37 146 -88q38 -60 7 -121.5t-101 -87.5q-3 -1 -8 -2t-7 -2q23 -29 37 -72
q25 -92 25 -182q2 -125 -8.5 -265.5t-28.5 -309.5t-25 -265q-5 -130 0 -172q2 -14 10.5 -54t12.5 -51q4 -8 9.5 -16.5t13.5 -18.5t12 -16zM414 903q-61 -169 -152 -479q196 42 250 51q4 1 10 1.5t15.5 1t17.5 1.5q3 34 37 356t35 490q-57 -79 -115.5 -197t-97.5 -225z
M618 1622q9 -17 34.5 -30t47.5 -13q44 0 68 35q9 18 -29 37q-41 23 -71 35q-3 -19 -18.5 -30t-35.5 -7q0 -19 4 -27z" />
    <glyph glyph-name="AE" unicode="&#xc6;" horiz-adv-x="1226" 
d="M1051 215q-26 -49 -48.5 -84t-57.5 -77t-78 -64.5t-91 -22.5q-82 0 -142 51.5t-95 135.5q-68 162 -64 407q1 12 1.5 33t1.5 39.5t3 34.5q-35 -7 -82 -15q-23 -6 -96 -14q-4 -13 -24 -76q-15 -54 -70 -224.5t-72 -207.5q7 -17 1 -33t-23 -20q-2 -1 -6 -2t-5 -2
q-11 -8 -24 -8q-20 0 -34 15.5t-13 37.5q8 106 135 536q-8 15 -3.5 34t21.5 28q71 232 191 553q45 109 92 153q41 44 88 50q68 12 115 -35q130 20 235 20q123 0 180 -12q59 -17 74 -39q20 -26 3 -54t-48 -22q-2 1 -14 -1l-12 -1q-59 -10 -367 -10v-8q7 -71 -4 -181
q-8 -75 -39 -290q31 7 70 14q4 1 21 3.5t22.5 3.5t21 3.5t22.5 3.5t21 2.5t22.5 2t21 1.5t22.5 0.5t21 -1t22 -1.5q26 -3 38 -25t3.5 -46t-33.5 -33q-85 -25 -205 -49q-10 -1 -106 -21q-13 -120 -13 -225q0 -186 62 -297q35 -65 82 -65q43 0 96 53q82 86 215 362
q12 25 37 25q22 0 34.5 -18.5t2.5 -43.5q-87 -196 -129 -274zM496 1190q-70 -157 -160 -438q64 14 156 41q7 61 24.5 186t24.5 190q8 70 8 103q-7 -7 -27.5 -39t-25.5 -43z" />
    <glyph glyph-name="Ccedilla" unicode="&#xc7;" horiz-adv-x="1044" 
d="M727 -287q-11 -39 -60 -97t-85 -58q-21 0 -35.5 16t-11.5 39q4 26 37 67.5t38 51.5q-15 6 -45 15t-53 18t-41 22q-36 22 -49 63q-12 47 10 103q1 4 7.5 17.5t9.5 23.5q-84 13 -152 58t-111.5 112.5t-70 143t-37.5 159.5q-22 160 5 326.5t99 308.5q73 150 197 253t274 103
q101 0 156 -55q51 -52 63.5 -137t-9 -168.5t-66.5 -147.5q-15 -18 -33 -18q-24 0 -36 20t3 45q66 107 51 226q-7 61 -30.5 93t-79.5 32q-21 0 -31 -2q-85 -14 -154.5 -71t-113 -134t-74.5 -173.5t-44.5 -182t-16.5 -167.5q-4 -187 45 -307q80 -188 247 -188q51 0 101 16
q26 10 51 22.5t51 31.5t43.5 32.5t46.5 40.5t40.5 38t43 43t39.5 40q14 14 31 14q23 0 36 -21t-1 -46q-33 -55 -94 -123q-163 -192 -357 -219q-4 -18 -14 -51t-12 -39q-5 -16 0 -19q12 -9 45 -18q75 -22 102 -37q64 -42 45 -115z" />
    <glyph glyph-name="Egrave" unicode="&#xc8;" horiz-adv-x="1054" 
d="M836 63q-205 -172 -342 -172q-61 0 -112 30.5t-85.5 81.5t-57 105t-36.5 113q-30 141 -27 289v39q-74 -8 -84 -8q-38 0 -48 33t22 53q19 12 36 6q5 2 32.5 12.5t49.5 18.5q20 281 99 610q-79 -6 -160 -6q-32 0 -39 33t22 47q4 2 13.5 4t13.5 4q26 8 79 27.5t79 27.5
q243 76 416 76q157 0 184 -31q20 -23 9 -52t-42 -34q-30 -4 -87 -19t-85 -20q-153 -27 -274 -43v-4q0 -69 -23 -285q-3 -31 -8 -85t-9 -98.5t-7 -84.5q240 79 301 90q5 0 16 -1t16 -1q33 2 52 -23t13.5 -57.5t-34.5 -50.5q-3 -1 -13 -7.5t-16 -8.5q-22 -10 -122.5 -37.5
t-133.5 -34.5q-46 -12 -88 -18q-2 -10 -2 -29q-4 -172 25 -289q6 -26 15.5 -55.5t25.5 -64t39 -56.5t49 -22q17 0 37 4q69 18 211.5 105t204.5 144q13 13 28 13q26 0 41.5 -24t-0.5 -52q-22 -36 -58.5 -74.5t-60.5 -58.5t-75 -60zM608 1599q25 -23 13.5 -54.5t-41.5 -31.5
q-13 0 -25 9q-10 5 -46 27t-76 46.5t-44 26.5q-12 -12 -31 -12q-23 0 -32 18q-8 12 -9 14q-27 26 -11 59t54 38q69 6 142 -49q18 -12 34.5 -26.5t39.5 -35.5t32 -29z" />
    <glyph glyph-name="Eacute" unicode="&#xc9;" horiz-adv-x="1054" 
d="M836 63q-205 -172 -342 -172q-61 0 -112 30.5t-85.5 81.5t-57 105t-36.5 113q-30 141 -27 289v39q-74 -8 -84 -8q-38 0 -48 33t22 53q19 12 36 6q5 2 32.5 12.5t49.5 18.5q20 281 99 610q-79 -6 -160 -6q-32 0 -39 33t22 47q4 2 13.5 4t13.5 4q26 8 79 27.5t79 27.5
q243 76 416 76q157 0 184 -31q20 -23 9 -52t-42 -34q-30 -4 -87 -19t-85 -20q-153 -27 -274 -43v-4q0 -69 -23 -285q-3 -31 -8 -85t-9 -98.5t-7 -84.5q240 79 301 90q5 0 16 -1t16 -1q33 2 52 -23t13.5 -57.5t-34.5 -50.5q-3 -1 -13 -7.5t-16 -8.5q-22 -10 -122.5 -37.5
t-133.5 -34.5q-46 -12 -88 -18q-2 -10 -2 -29q-4 -172 25 -289q6 -26 15.5 -55.5t25.5 -64t39 -56.5t49 -22q17 0 37 4q69 18 211.5 105t204.5 144q13 13 28 13q26 0 41.5 -24t-0.5 -52q-22 -36 -58.5 -74.5t-60.5 -58.5t-75 -60zM391 1585q-11 -8 -24 -8q-29 0 -42.5 27.5
t7.5 52.5q36 59 114 76q38 10 66 10q44 0 68 -37q16 -23 2 -46.5t-37 -23.5q-14 0 -27 13q-6 2 -8.5 2t-11 -3t-9.5 -3q-16 -5 -32 -15t-35.5 -24t-30.5 -21z" />
    <glyph glyph-name="Ecircumflex" unicode="&#xca;" horiz-adv-x="1054" 
d="M836 63q-205 -172 -342 -172q-61 0 -112 30.5t-85.5 81.5t-57 105t-36.5 113q-30 141 -27 289v39q-74 -8 -84 -8q-38 0 -48 33t22 53q19 12 36 6q5 2 32.5 12.5t49.5 18.5q20 281 99 610q-79 -6 -160 -6q-32 0 -39 33t22 47q4 2 13.5 4t13.5 4q26 8 79 27.5t79 27.5
q243 76 416 76q157 0 184 -31q20 -23 9 -52t-42 -34q-30 -4 -87 -19t-85 -20q-153 -27 -274 -43v-4q0 -69 -23 -285q-3 -31 -8 -85t-9 -98.5t-7 -84.5q240 79 301 90q5 0 16 -1t16 -1q33 2 52 -23t13.5 -57.5t-34.5 -50.5q-3 -1 -13 -7.5t-16 -8.5q-22 -10 -122.5 -37.5
t-133.5 -34.5q-46 -12 -88 -18q-2 -10 -2 -29q-4 -172 25 -289q6 -26 15.5 -55.5t25.5 -64t39 -56.5t49 -22q17 0 37 4q69 18 211.5 105t204.5 144q13 13 28 13q26 0 41.5 -24t-0.5 -52q-22 -36 -58.5 -74.5t-60.5 -58.5t-75 -60zM516 1647q-4 -2 -71 -39t-89 -37h-4
q-38 6 -42.5 43t32.5 49q9 6 34 24.5t37.5 27t33.5 19.5t40 17q21 6 45 6q29 0 51.5 -8.5t42 -28.5t30 -34.5t30.5 -45.5q14 -25 0 -47t-37 -22q-16 0 -28 12q-3 3 -12.5 14.5t-16.5 19t-17 17t-19 14.5t-17 5q-5 0 -23 -6z" />
    <glyph glyph-name="Edieresis" unicode="&#xcb;" horiz-adv-x="1054" 
d="M836 63q-205 -172 -342 -172q-61 0 -112 30.5t-85.5 81.5t-57 105t-36.5 113q-30 141 -27 289v39q-74 -8 -84 -8q-38 0 -48 33t22 53q19 12 36 6q5 2 32.5 12.5t49.5 18.5q20 281 99 610q-79 -6 -160 -6q-32 0 -39 33t22 47q4 2 13.5 4t13.5 4q26 8 79 27.5t79 27.5
q243 76 416 76q157 0 184 -31q20 -23 9 -52t-42 -34q-30 -4 -87 -19t-85 -20q-153 -27 -274 -43v-4q0 -69 -23 -285q-3 -31 -8 -85t-9 -98.5t-7 -84.5q240 79 301 90q5 0 16 -1t16 -1q33 2 52 -23t13.5 -57.5t-34.5 -50.5q-3 -1 -13 -7.5t-16 -8.5q-22 -10 -122.5 -37.5
t-133.5 -34.5q-46 -12 -88 -18q-2 -10 -2 -29q-4 -172 25 -289q6 -26 15.5 -55.5t25.5 -64t39 -56.5t49 -22q17 0 37 4q69 18 211.5 105t204.5 144q13 13 28 13q26 0 41.5 -24t-0.5 -52q-22 -36 -58.5 -74.5t-60.5 -58.5t-75 -60zM352 1597q-8 -8 -35 -8t-38 28t4 54
q8 12 32 25.5t39 13.5q29 0 41 -29.5t-12 -54.5q-25 -25 -31 -29zM582 1593q-2 0 -6.5 -1t-6.5 -1q-26 0 -39.5 23.5t-5.5 49.5t37 34q36 9 56.5 -13.5t11 -53t-46.5 -38.5z" />
    <glyph glyph-name="Igrave" unicode="&#xcc;" horiz-adv-x="456" 
d="M373 1706q25 -12 30 -37t-11.5 -45t-43.5 -18q-58 4 -168 32q-26 -20 -49 0q-6 3 -12.5 14.5t-9.5 14.5q-20 22 -13 51t35 35q25 2 29.5 3t29.5 -3.5t29 -5.5q109 -17 154 -41zM352 25q-21 -15 -45 -15q-25 0 -49 15.5t-39 40.5q-34 60 -57 178q-31 143 -23 413
q9 245 51 469q2 17 29 209q-67 -86 -74 -114q0 -1 -2 -11t-2 -12q-9 -33 -39 -33q-19 0 -31.5 12.5t-9.5 34.5q8 54 75 152t108 104q27 3 45 -12q6 -4 14 -20q27 -37 31 -109q4 -51 0 -156q-1 -18 -4.5 -116.5t-4.5 -126t-3.5 -114.5t-2.5 -125.5v-114.5t2 -126t5.5 -114.5
t9.5 -122.5q1 -6 4 -42.5t4 -41.5q0 -1 1 -13t5 -14q19 -14 20 -37.5t-18 -37.5z" />
    <glyph glyph-name="Iacute" unicode="&#xcd;" horiz-adv-x="458" 
d="M348 1753q-26 -29 -96 -80t-98 -51t-41 27t4 53q22 27 96 83t100 56q32 0 45.5 -31t-10.5 -57zM352 25q-21 -15 -45 -15q-25 0 -49 15.5t-39 40.5q-34 60 -57 178q-31 143 -23 413q9 245 51 469q2 17 29 209q-67 -86 -74 -114q0 -1 -2 -11t-2 -12q-9 -33 -39 -33
q-19 0 -31.5 12.5t-9.5 34.5q8 54 75 152t108 104q27 3 45 -12q6 -4 14 -20q27 -37 31 -109q4 -51 0 -156q-1 -18 -4.5 -116.5t-4.5 -126t-3.5 -114.5t-2.5 -125.5v-114.5t2 -126t5.5 -114.5t9.5 -122.5q1 -6 4 -42.5t4 -41.5q0 -1 1 -13t5 -14q19 -14 20 -37.5t-18 -37.5z
" />
    <glyph glyph-name="Icircumflex" unicode="&#xce;" horiz-adv-x="460" 
d="M166 1610q-19 -8 -36.5 -1.5t-23.5 23.5q-8 24 5 80q3 15 14 24t25 9q6 0 22 -8q2 2 14.5 15.5t16 17l15 15t17.5 15.5t17 12.5t19 12t19 7.5t21 5q38 4 66 -10q62 -29 133 -141q16 -25 2.5 -48.5t-39.5 -23.5q-17 0 -27 10q-6 5 -32.5 29.5t-51 44.5t-34.5 24
q-33 -9 -83 -55t-79 -57zM352 25q-21 -15 -45 -15q-25 0 -49 15.5t-39 40.5q-34 60 -57 178q-31 143 -23 413q9 245 51 469q2 17 29 209q-67 -86 -74 -114q0 -1 -2 -11t-2 -12q-9 -33 -39 -33q-19 0 -31.5 12.5t-9.5 34.5q8 54 75 152t108 104q27 3 45 -12q6 -4 14 -20
q27 -37 31 -109q4 -51 0 -156q-1 -18 -4.5 -116.5t-4.5 -126t-3.5 -114.5t-2.5 -125.5v-114.5t2 -126t5.5 -114.5t9.5 -122.5q1 -6 4 -42.5t4 -41.5q0 -1 1 -13t5 -14q19 -14 20 -37.5t-18 -37.5z" />
    <glyph glyph-name="Idieresis" unicode="&#xcf;" horiz-adv-x="460" 
d="M352 25q-21 -15 -45 -15q-25 0 -49 15.5t-39 40.5q-34 60 -57 178q-31 143 -23 413q9 245 51 469q2 17 29 209q-67 -86 -74 -114q0 -1 -2 -11t-2 -12q-9 -33 -39 -33q-19 0 -31.5 12.5t-9.5 34.5q8 54 75 152t108 104q27 3 45 -12q6 -4 14 -20q27 -37 31 -109
q4 -51 0 -156q-1 -18 -4.5 -116.5t-4.5 -126t-3.5 -114.5t-2.5 -125.5v-114.5t2 -126t5.5 -114.5t9.5 -122.5q1 -6 4 -42.5t4 -41.5q0 -1 1 -13t5 -14q19 -14 20 -37.5t-18 -37.5zM162 1571q-33 -6 -52.5 21.5t-5.5 60.5q10 22 33 41.5t45 19.5q28 0 43 -25.5t2 -54.5
q-3 -6 -10 -18.5t-10 -18.5q-10 -29 -41 -26h-4zM469 1640q3 -26 -12 -41.5t-37 -15.5q-40 0 -49 43q-5 26 8 46t37 20q2 0 6.5 1t7.5 1q20 0 32 -16.5t7 -37.5z" />
    <glyph glyph-name="Eth" unicode="&#xd0;" horiz-adv-x="1308" 
d="M1133 293q-94 -147 -274 -261t-345 -114q-64 0 -105.5 30t-70.5 91q-8 20 -3.5 35.5t17.5 25.5q-8 2 -16 11q-115 77 -115 483q-38 -4 -45 -2q-6 0 -17 3.5t-14 4.5q-8 1 -21 0.5t-31 -1.5t-21 -1q-24 0 -34 20t0 41t34 23q64 0 71 4q24 17 78 21q6 280 60 571
q-26 -4 -82 -16q-8 0 -13 -5q-6 -6 -27 -13t-32 -7q-15 0 -28.5 11t-18.5 26q-18 77 133 137q131 49 285 49q221 0 392 -107t273 -306q106 -201 84 -437q-14 -164 -114 -317zM410 94q20 -20 30 -28t26.5 -14.5t39.5 -6.5q21 0 57 8q181 43 332 209.5t176 349.5
q16 123 -23.5 248.5t-125 226t-199.5 152.5q-96 42 -221 49q-63 4 -94 2q10 -75 -5 -284q-4 -87 -8 -261q87 20 183 46q75 18 108 18q30 0 43 -10q23 -17 23 -44t-21 -46q-18 -16 -108 -43q-9 -2 -100.5 -21t-127.5 -27q0 -75 4 -227q0 -31 3.5 -107.5t7.5 -95.5
q28 -9 34 -37t-16 -47q-6 -6 -18 -10z" />
    <glyph glyph-name="Ntilde" unicode="&#xd1;" horiz-adv-x="1153" 
d="M889 1626q6 -31 -13.5 -55.5t-50.5 -24.5q-27 3 -53 21q-23 13 -63 44.5t-60 43.5q-21 17 -27 9q-2 -1 -1 -5q3 -22 -15 -37t-41 -12q-37 4 -43 35t16 65.5t58 48.5q15 6 31 6q32 0 69 -22q25 -16 69.5 -50t55.5 -42q12 12 29 12q14 0 26 -10t13 -27zM307 -8
q-13 -8 -35 -8q-30 0 -54 17.5t-39.5 49.5t-23.5 56t-16 57q-58 228 -41 541q14 278 76 579q10 38 21 70q7 26 29 42.5t48 16.5q14 0 29 -6q40 -23 47 -70q3 -19 2.5 -44t-1 -37.5t-4.5 -48t-5 -40.5q-3 -25 -18.5 -142.5t-20.5 -163t-14 -137t-11.5 -164t-1.5 -144.5
q4 -172 21 -266q34 55 86 198q40 111 104 319t90 287q146 447 306 447q42 3 80 -35q31 -34 49 -96q49 -164 37 -455q-1 -19 -13 -248.5t-12 -267.5q0 -1 -1 -44t-0.5 -76t3.5 -44q1 -1 2.5 -7t3.5 -7q25 -17 23.5 -47.5t-27.5 -42.5q-12 -6 -29 -6q-47 0 -80.5 34t-48.5 89
t-21 99.5t-7 90.5q-5 122 15 343t22 298q2 55 2 164q-4 101 -13 143q-54 -38 -113 -152.5t-91.5 -208.5t-59.5 -188q-3 -12 -27 -98t-31 -109t-28 -93.5t-33.5 -107.5t-32.5 -92t-40 -102q-16 -42 -44.5 -86.5t-58.5 -56.5z" />
    <glyph glyph-name="Ograve" unicode="&#xd2;" 
d="M696 1765q27 -8 34.5 -33t-7 -47t-41.5 -22q-69 3 -137 18q-21 5 -60 20t-45 17q-35 12 -35 50t35 53q17 7 53.5 0t86.5 -23.5t55 -17.5q4 -1 30.5 -7.5t30.5 -7.5zM961 434q-28 -90 -71 -165t-102.5 -136t-140.5 -95t-176 -34q-128 0 -221 64.5t-137.5 168t-46.5 232.5
q-5 259 141 559q17 34 37 69.5t53 85t65 86t71 63t73 26.5q59 0 74 -51q10 -27 0 -59.5t-31 -53.5q-241 -241 -305 -576q-28 -139 -21 -235q9 -123 76.5 -191.5t192.5 -68.5q69 0 127.5 26t99 67t73.5 99.5t53.5 115t35.5 122.5q41 197 16 399q-7 53 -22.5 110.5t-44 121
t-64 112.5t-87 81t-110.5 32q-53 0 -102 -18q-16 -6 -33 -14t-29.5 -14.5t-31.5 -18.5t-28 -18t-30.5 -21t-27.5 -19q-11 -8 -25 -8q-27 0 -39 28.5t10 51.5q73 70 168 115t187 45q78 0 143.5 -32.5t109 -83t76.5 -121t51 -138t29 -142.5q43 -297 -36 -567z" />
    <glyph glyph-name="Oacute" unicode="&#xd3;" 
d="M524 1657q-26 -8 -43 9.5t-13.5 43t28.5 37.5q11 6 43 20q109 33 147 37q64 9 74 4q22 -9 24.5 -31.5t-16.5 -37.5q-10 -8 -35 -11t-33 -6q-133 -54 -176 -65zM961 434q-28 -90 -71 -165t-102.5 -136t-140.5 -95t-176 -34q-128 0 -221 64.5t-137.5 168t-46.5 232.5
q-5 259 141 559q17 34 37 69.5t53 85t65 86t71 63t73 26.5q59 0 74 -51q10 -27 0 -59.5t-31 -53.5q-241 -241 -305 -576q-28 -139 -21 -235q9 -123 76.5 -191.5t192.5 -68.5q69 0 127.5 26t99 67t73.5 99.5t53.5 115t35.5 122.5q41 197 16 399q-7 53 -22.5 110.5t-44 121
t-64 112.5t-87 81t-110.5 32q-53 0 -102 -18q-16 -6 -33 -14t-29.5 -14.5t-31.5 -18.5t-28 -18t-30.5 -21t-27.5 -19q-11 -8 -25 -8q-27 0 -39 28.5t10 51.5q73 70 168 115t187 45q78 0 143.5 -32.5t109 -83t76.5 -121t51 -138t29 -142.5q43 -297 -36 -567z" />
    <glyph glyph-name="Ocircumflex" unicode="&#xd4;" 
d="M819 1614q-39 -6 -78 18q-10 4 -61.5 47t-58.5 47q-17 -8 -55.5 -30t-47.5 -31q-12 -12 -29 -12q-21 0 -33 18t-5 41q13 38 72 85.5t100 47.5q27 0 43 -8q9 -4 30 -20t40 -31t41.5 -33.5t25.5 -21.5q1 -1 9 -10t11 -9q38 -9 36 -49.5t-40 -48.5zM961 434
q-28 -90 -71 -165t-102.5 -136t-140.5 -95t-176 -34q-128 0 -221 64.5t-137.5 168t-46.5 232.5q-5 259 141 559q17 34 37 69.5t53 85t65 86t71 63t73 26.5q59 0 74 -51q10 -27 0 -59.5t-31 -53.5q-241 -241 -305 -576q-28 -139 -21 -235q9 -123 76.5 -191.5t192.5 -68.5
q69 0 127.5 26t99 67t73.5 99.5t53.5 115t35.5 122.5q41 197 16 399q-7 53 -22.5 110.5t-44 121t-64 112.5t-87 81t-110.5 32q-53 0 -102 -18q-16 -6 -33 -14t-29.5 -14.5t-31.5 -18.5t-28 -18t-30.5 -21t-27.5 -19q-11 -8 -25 -8q-27 0 -39 28.5t10 51.5q73 70 168 115
t187 45q78 0 143.5 -32.5t109 -83t76.5 -121t51 -138t29 -142.5q43 -297 -36 -567z" />
    <glyph glyph-name="Otilde" unicode="&#xd5;" 
d="M834 1761q-9 -43 -63 -79.5t-101 -36.5q-28 0 -52 6q-11 3 -30.5 10.5t-35 12t-30.5 5.5q-19 -26 -45 -16q-1 0 -2 1t-2 1q-27 3 -38 24.5t-3 48t31 42.5q30 18 74 18q34 0 55 -8q74 -37 94 -37q13 4 37.5 22t32.5 29q17 17 32 17q20 0 35 -18t11 -42zM961 434
q-28 -90 -71 -165t-102.5 -136t-140.5 -95t-176 -34q-128 0 -221 64.5t-137.5 168t-46.5 232.5q-5 259 141 559q17 34 37 69.5t53 85t65 86t71 63t73 26.5q59 0 74 -51q10 -27 0 -59.5t-31 -53.5q-241 -241 -305 -576q-28 -139 -21 -235q9 -123 76.5 -191.5t192.5 -68.5
q69 0 127.5 26t99 67t73.5 99.5t53.5 115t35.5 122.5q41 197 16 399q-7 53 -22.5 110.5t-44 121t-64 112.5t-87 81t-110.5 32q-53 0 -102 -18q-16 -6 -33 -14t-29.5 -14.5t-31.5 -18.5t-28 -18t-30.5 -21t-27.5 -19q-11 -8 -25 -8q-27 0 -39 28.5t10 51.5q73 70 168 115
t187 45q78 0 143.5 -32.5t109 -83t76.5 -121t51 -138t29 -142.5q43 -297 -36 -567z" />
    <glyph glyph-name="Odieresis" unicode="&#xd6;" 
d="M961 434q-28 -90 -71 -165t-102.5 -136t-140.5 -95t-176 -34q-128 0 -221 64.5t-137.5 168t-46.5 232.5q-5 259 141 559q17 34 37 69.5t53 85t65 86t71 63t73 26.5q59 0 74 -51q10 -27 0 -59.5t-31 -53.5q-241 -241 -305 -576q-28 -139 -21 -235q9 -123 76.5 -191.5
t192.5 -68.5q69 0 127.5 26t99 67t73.5 99.5t53.5 115t35.5 122.5q41 197 16 399q-7 53 -22.5 110.5t-44 121t-64 112.5t-87 81t-110.5 32q-53 0 -102 -18q-16 -6 -33 -14t-29.5 -14.5t-31.5 -18.5t-28 -18t-30.5 -21t-27.5 -19q-11 -8 -25 -8q-27 0 -39 28.5t10 51.5
q73 70 168 115t187 45q78 0 143.5 -32.5t109 -83t76.5 -121t51 -138t29 -142.5q43 -297 -36 -567zM561 1772q20 -12 22.5 -33.5t-11.5 -38t-37 -14.5h-25q-23 -2 -38 14.5t-13.5 39t20.5 36.5q13 10 33 10q24 0 49 -14zM780 1651q-46 -3 -59 37q-8 25 7.5 46.5t41.5 22.5
q3 0 20.5 -1t20.5 -1q35 -5 38 -42.5t-32 -51.5q-7 0 -37 -10z" />
    <glyph glyph-name="multiply" unicode="&#xd7;" horiz-adv-x="788" 
d="M164 248q-11 -8 -27 -8q-19 0 -34.5 14t-16.5 35q-5 57 43 135q67 96 131 174q-165 174 -184 225q-10 29 5 53.5t40 24.5q13 0 24 -8q2 -2 19.5 -13.5t19.5 -13.5q30 -22 178 -155q18 19 51.5 51.5t41.5 40.5q28 28 106.5 98.5t100.5 83.5q11 8 24 8q26 0 35.5 -25.5
t-12.5 -47.5q-20 -16 -31 -27q-26 -24 -221 -264q109 -95 151 -137q74 -70 105 -134q12 -29 -5.5 -54t-48.5 -25q-29 0 -102 43q-18 12 -37 27t-33 27t-34.5 31t-30.5 29t-33 32t-31 30q-153 -204 -157 -209q-3 -3 -15.5 -19t-21.5 -22z" />
    <glyph glyph-name="Oslash" unicode="&#xd8;" horiz-adv-x="1200" 
d="M92 -121q-15 -12 -33 -12q-21 0 -34.5 15t-12.5 38q3 28 57.5 119.5t96.5 150.5q-69 118 -72 279q-8 252 142 559q20 43 48.5 91t69.5 106t88.5 95.5t89.5 37.5q59 0 76 -51q9 -27 -1 -59.5t-32 -53.5q-122 -125 -195 -263.5t-110 -312.5q-27 -149 -18 -235q0 -25 6 -49
q347 538 594 866q-107 209 -256 209q-54 0 -100 -18q-19 -7 -37.5 -15.5t-40 -21.5t-33 -20t-38.5 -25t-34 -23q-11 -8 -24 -8q-28 0 -39 28.5t12 51.5q71 70 166 115t188 45q103 0 186 -57t132 -154q2 4 6 8q54 70 104 123q17 19 53 38.5t58 16.5q25 -4 31.5 -29.5
t-12.5 -42.5q-7 -7 -28 -14t-28 -12q-21 -18 -67 -80q-16 -20 -44 -58t-32 -43q35 -98 51 -213q43 -297 -39 -567q-26 -89 -69 -165t-102.5 -136.5t-140.5 -94.5t-175 -34q-169 0 -271 102q-9 -15 -14 -20q-60 -100 -100 -160q0 -24 -23 -47zM303 219q32 -47 91 -71.5
t126 -24.5t125 26t99 67.5t74.5 99.5t54 115.5t34.5 121.5q44 200 17 399q-8 69 -31 148q-69 -97 -268 -393q-16 -24 -70.5 -106.5t-132 -200t-119.5 -181.5z" />
    <glyph glyph-name="Ugrave" unicode="&#xd9;" horiz-adv-x="1130" 
d="M707 1659q30 -19 20.5 -54.5t-43.5 -35.5q-15 0 -75 19.5t-83 29.5q-18 5 -33.5 20.5t-15.5 32.5q0 18 13 31.5t28 13.5q1 0 14.5 -3t14.5 -3q22 -3 82 -22t78 -29zM465 33q-47 -24 -86 -19q-53 3 -107 43q-142 103 -170 426q-16 207 0 455q7 116 33 270.5t66 208.5
q22 31 55 31q45 0 66 -41q18 -33 10 -98q-3 -31 -13.5 -112t-13.5 -126q-22 -214 -16 -418q6 -348 94 -442q10 -10 14 -8q57 33 168 276q89 212 185 541q5 17 20.5 67.5t22.5 75t18 65.5t18.5 75.5t12.5 68.5q9 42 32.5 71.5t61.5 29.5q52 0 74 -46q20 -36 12 -96
q-35 -242 -43 -332q-38 -322 -6 -593q12 -126 43 -185q37 -6 46 -41t-20 -55q-38 -23 -71 -23q-37 0 -70 19t-55 53q-73 110 -78 422q-62 -182 -125 -322q-85 -195 -178 -241z" />
    <glyph glyph-name="Uacute" unicode="&#xda;" horiz-adv-x="1130" 
d="M610 1511q-12 -12 -30 -12q-28 0 -41 24t4 52q29 39 75.5 79t77.5 40q7 0 41 -17q21 -12 22.5 -33.5t-15 -36t-39.5 -8.5q-20 -14 -52.5 -46.5t-42.5 -41.5zM465 33q-47 -24 -86 -19q-53 3 -107 43q-142 103 -170 426q-16 207 0 455q7 116 33 270.5t66 208.5q22 31 55 31
q45 0 66 -41q18 -33 10 -98q-3 -31 -13.5 -112t-13.5 -126q-22 -214 -16 -418q6 -348 94 -442q10 -10 14 -8q57 33 168 276q89 212 185 541q5 17 20.5 67.5t22.5 75t18 65.5t18.5 75.5t12.5 68.5q9 42 32.5 71.5t61.5 29.5q52 0 74 -46q20 -36 12 -96q-35 -242 -43 -332
q-38 -322 -6 -593q12 -126 43 -185q37 -6 46 -41t-20 -55q-38 -23 -71 -23q-37 0 -70 19t-55 53q-73 110 -78 422q-62 -182 -125 -322q-85 -195 -178 -241z" />
    <glyph glyph-name="Ucircumflex" unicode="&#xdb;" horiz-adv-x="1130" 
d="M518 1565q-11 -33 -39 -33q-26 0 -38.5 25.5t8.5 56.5q16 23 74 81.5t79 71.5q24 17 45 17q23 0 43 -17q11 -8 21.5 -16.5t21.5 -20t17.5 -19t19.5 -22t18 -20.5q21 -25 8.5 -53.5t-42.5 -28.5q-48 0 -119 76q-97 -83 -117 -98zM465 33q-47 -24 -86 -19q-53 3 -107 43
q-142 103 -170 426q-16 207 0 455q7 116 33 270.5t66 208.5q22 31 55 31q45 0 66 -41q18 -33 10 -98q-3 -31 -13.5 -112t-13.5 -126q-22 -214 -16 -418q6 -348 94 -442q10 -10 14 -8q57 33 168 276q89 212 185 541q5 17 20.5 67.5t22.5 75t18 65.5t18.5 75.5t12.5 68.5
q9 42 32.5 71.5t61.5 29.5q52 0 74 -46q20 -36 12 -96q-35 -242 -43 -332q-38 -322 -6 -593q12 -126 43 -185q37 -6 46 -41t-20 -55q-38 -23 -71 -23q-37 0 -70 19t-55 53q-73 110 -78 422q-62 -182 -125 -322q-85 -195 -178 -241z" />
    <glyph glyph-name="Udieresis" unicode="&#xdc;" horiz-adv-x="1130" 
d="M608 1546q-21 -9 -37 -6q-26 2 -37.5 24t-2 45t35.5 29q15 4 41 0q23 -5 32 -25t0 -40.5t-32 -26.5zM422 1614q21 -32 -5 -60t-67 -28h-4q-32 0 -45 30t6 56q13 16 41.5 22.5t48.5 -0.5q20 -8 25 -20zM465 33q-47 -24 -86 -19q-53 3 -107 43q-142 103 -170 426
q-16 207 0 455q7 116 33 270.5t66 208.5q22 31 55 31q45 0 66 -41q18 -33 10 -98q-3 -31 -13.5 -112t-13.5 -126q-22 -214 -16 -418q6 -348 94 -442q10 -10 14 -8q57 33 168 276q89 212 185 541q5 17 20.5 67.5t22.5 75t18 65.5t18.5 75.5t12.5 68.5q9 42 32.5 71.5
t61.5 29.5q52 0 74 -46q20 -36 12 -96q-35 -242 -43 -332q-38 -322 -6 -593q12 -126 43 -185q37 -6 46 -41t-20 -55q-38 -23 -71 -23q-37 0 -70 19t-55 53q-73 110 -78 422q-62 -182 -125 -322q-85 -195 -178 -241z" />
    <glyph glyph-name="Yacute" unicode="&#xdd;" horiz-adv-x="927" 
d="M428 1507q-13 -16 -35 -16t-36 17.5t-5 41.5q14 44 54 96t77 60q5 1 29 0l25 -2q25 -3 32.5 -24t-5 -40.5t-36.5 -19.5h-2q-1 0 -5.5 1t-8.5 1t-6 -2q-3 -5 -14.5 -19t-16.5 -22q-4 -4 -23.5 -36t-23.5 -36zM741 -8q-28 -8 -47 -8q-55 4 -87 48.5t-42 106.5
q-15 103 -12 246q0 210 37 455q-83 -148 -182 -283q-71 -94 -148 -94q-26 0 -49 10q-128 54 -141 283q-16 250 28 471q19 109 47 168q15 30 48 30q21 0 36 -18q11 -15 14.5 -50.5t1 -66t-7.5 -74.5t-6 -53q-6 -77 -8.5 -169t6 -209t33.5 -158q7 -13 10 -15q5 0 9 4
q23 12 67 69.5t74 102.5q136 215 254 480q17 34 24 92q5 35 27 60.5t55 25.5q30 0 53.5 -20.5t24.5 -53.5q1 -20 -9.5 -96t-16.5 -109q-3 -16 -16 -98t-16.5 -107t-14 -95.5t-14.5 -108t-10.5 -96t-9.5 -108t-5 -99.5q-1 -55 2 -167t2 -169q0 -2 -1 -8.5t-1 -11t2 -5.5
q29 -20 25 -55t-36 -47z" />
    <glyph glyph-name="Thorn" unicode="&#xde;" horiz-adv-x="874" 
d="M322 -139q-24 -4 -39 -4q-22 0 -43 6q-30 12 -52 45q-64 79 -82 350q0 1 -1 2t-1 2q-21 24 -20.5 51t18.5 43q-6 171 2 293q12 230 72 576q15 91 31 145q9 32 32 49t52 17q33 0 58 -22t28 -60q4 -27 -17 -160q-4 -26 -11 -76.5t-11 -75.5q91 31 182 31q110 0 199 -48.5
t115 -145.5q21 -83 -15 -193q-60 -162 -210 -284.5t-324 -161.5q0 -143 14 -232q0 -1 4 -19t6 -22t10 -4q27 -4 38.5 -27.5t1.5 -47t-37 -27.5zM319 889q-27 -263 -32 -475q260 141 344 313q37 83 18 113q-21 33 -83 49t-115 16q-63 0 -132 -16z" />
    <glyph glyph-name="germandbls" unicode="&#xdf;" horiz-adv-x="995" 
d="M205 -125q-11 -8 -29 -8q-32 0 -47 24q-18 30 -35.5 133.5t-21.5 163.5q-19 291 20 557q37 278 154 435q71 99 184 170t225 71q106 0 185 -78t102 -186q19 -91 -18 -176q-43 -120 -260 -252q88 -76 145 -174t57 -201q-3 -101 -72 -163t-171 -62q-50 0 -110.5 23t-90.5 57
q-27 29 -11.5 66.5t54.5 37.5q26 0 71.5 -14.5t59.5 -17.5q38 -7 79.5 1t55.5 33q4 11 3 28t-5 28q-27 80 -80 151q-33 40 -100 96q-38 31 -57 54q-29 33 -26 74t36 71q11 10 24.5 18.5t34 18.5t27.5 14q67 39 124.5 91.5t69.5 105.5q10 48 -30 111q-47 75 -113 75
q-51 0 -111 -33t-102 -75q-61 -61 -105 -168.5t-65 -231.5t-30 -230t-9 -206q0 -286 -4 -368q11 -15 9 -34.5t-17 -29.5z" />
    <glyph glyph-name="agrave" unicode="&#xe0;" horiz-adv-x="684" 
d="M455 1249q20 -32 2.5 -64t-51.5 -32q-36 0 -109.5 73.5t-81.5 108.5q-5 25 10 45.5t39 20.5q32 0 100 -58.5t91 -93.5zM618 303q23 -31 4 -58.5t-55 -27.5q-33 0 -65.5 31t-46.5 65q-16 44 -23 119q-17 -33 -26.5 -50.5t-28.5 -45.5t-36.5 -42.5t-43.5 -26t-55 -11.5
q-59 0 -106 32.5t-70 88.5q-35 74 -25 162q5 56 29.5 125.5t62.5 135t95 110t118 44.5q35 0 71 -17.5t62 -45.5q8 36 21 80q7 22 24.5 34.5t38.5 12.5q36 0 53 -33q9 -17 9.5 -43.5t-2.5 -46.5q-3 -44 -9.5 -125t-9.5 -125.5t-5 -125.5t5 -126q0 -1 2 -25t5 -41.5t7 -23.5z
M219 561q-6 -38 0.5 -77.5t30.5 -51.5q22 16 61 70q72 112 131 278q1 2 0 4t-3 5t-3 4q-7 6 -26.5 11t-28.5 3q-38 0 -76 -49.5t-59.5 -105t-26.5 -91.5z" />
    <glyph glyph-name="aacute" unicode="&#xe1;" horiz-adv-x="684" 
d="M389 1104q-18 -21 -43 -21q-31 0 -49 28t0 60q0 1 4 11t8 14q10 16 43.5 59.5t44.5 53.5q25 22 54 22q34 0 45 -33q3 -11 -0.5 -26.5t-9.5 -29t-18 -33.5t-19 -30.5t-21 -30t-16 -22.5q-3 -4 -11.5 -11t-11.5 -11zM618 303q23 -31 4 -58.5t-55 -27.5q-33 0 -65.5 31
t-46.5 65q-16 44 -23 119q-17 -33 -26.5 -50.5t-28.5 -45.5t-36.5 -42.5t-43.5 -26t-55 -11.5q-59 0 -106 32.5t-70 88.5q-35 74 -25 162q5 56 29.5 125.5t62.5 135t95 110t118 44.5q35 0 71 -17.5t62 -45.5q8 36 21 80q7 22 24.5 34.5t38.5 12.5q36 0 53 -33
q9 -17 9.5 -43.5t-2.5 -46.5q-3 -44 -9.5 -125t-9.5 -125.5t-5 -125.5t5 -126q0 -1 2 -25t5 -41.5t7 -23.5zM219 561q-6 -38 0.5 -77.5t30.5 -51.5q22 16 61 70q72 112 131 278q1 2 0 4t-3 5t-3 4q-7 6 -26.5 11t-28.5 3q-38 0 -76 -49.5t-59.5 -105t-26.5 -91.5z" />
    <glyph glyph-name="acircumflex" unicode="&#xe2;" horiz-adv-x="688" 
d="M258 1118q-27 -3 -40.5 20.5t-2.5 49.5q24 59 95 141t122 82q36 0 58.5 -24t41.5 -64q24 -62 33 -90q9 -25 -7 -45.5t-40 -20.5q-19 0 -35 19q-3 5 -27.5 40t-27.5 40q-6 -5 -46 -48.5t-72 -70.5t-52 -29zM618 303q23 -31 4 -58.5t-55 -27.5q-33 0 -65.5 31t-46.5 65
q-16 44 -23 119q-17 -33 -26.5 -50.5t-28.5 -45.5t-36.5 -42.5t-43.5 -26t-55 -11.5q-59 0 -106 32.5t-70 88.5q-35 74 -25 162q5 56 29.5 125.5t62.5 135t95 110t118 44.5q35 0 71 -17.5t62 -45.5q8 36 21 80q7 22 24.5 34.5t38.5 12.5q36 0 53 -33q9 -17 9.5 -43.5
t-2.5 -46.5q-3 -44 -9.5 -125t-9.5 -125.5t-5 -125.5t5 -126q0 -1 2 -25t5 -41.5t7 -23.5zM219 561q-6 -38 0.5 -77.5t30.5 -51.5q22 16 61 70q72 112 131 278q1 2 0 4t-3 5t-3 4q-7 6 -26.5 11t-28.5 3q-38 0 -76 -49.5t-59.5 -105t-26.5 -91.5z" />
    <glyph glyph-name="atilde" unicode="&#xe3;" horiz-adv-x="690" 
d="M604 1309q-6 -57 -38.5 -100.5t-76.5 -43.5q-16 0 -34 9q-12 5 -22 12t-20.5 19t-16 18.5t-17 23.5t-14.5 21q-1 -1 -7.5 -6t-11.5 -9.5t-6 -7.5q-10 -24 -59 -33q-26 -3 -40 20t-3 48q12 32 58.5 76.5t78.5 44.5q28 0 47 -19q5 -4 19.5 -25t29.5 -45t18 -28
q8 16 14.5 47.5t10.5 42.5q11 33 45 33q35 0 45 -37q6 -31 0 -61zM618 303q23 -31 4 -58.5t-55 -27.5q-33 0 -65.5 31t-46.5 65q-16 44 -23 119q-17 -33 -26.5 -50.5t-28.5 -45.5t-36.5 -42.5t-43.5 -26t-55 -11.5q-59 0 -106 32.5t-70 88.5q-35 74 -25 162q5 56 29.5 125.5
t62.5 135t95 110t118 44.5q35 0 71 -17.5t62 -45.5q8 36 21 80q7 22 24.5 34.5t38.5 12.5q36 0 53 -33q9 -17 9.5 -43.5t-2.5 -46.5q-3 -44 -9.5 -125t-9.5 -125.5t-5 -125.5t5 -126q0 -1 2 -25t5 -41.5t7 -23.5zM219 561q-6 -38 0.5 -77.5t30.5 -51.5q22 16 61 70
q72 112 131 278q1 2 0 4t-3 5t-3 4q-7 6 -26.5 11t-28.5 3q-38 0 -76 -49.5t-59.5 -105t-26.5 -91.5z" />
    <glyph glyph-name="adieresis" unicode="&#xe4;" horiz-adv-x="679" 
d="M494 1178q-37 -3 -52.5 29t7.5 61q9 12 34 24q28 14 49 -4q2 -1 3 -1t2 -1q23 -10 23 -35t-21 -39q-13 -27 -45 -34zM367 1217q-1 -24 -18.5 -41t-39.5 -17q-21 0 -35 17q-13 18 -10.5 39t17.5 36t36 15q20 0 35 -13.5t15 -35.5zM616 303q23 -31 4 -58.5t-55 -27.5
q-33 0 -65.5 31t-46.5 65q-16 44 -23 119q-17 -33 -26.5 -50.5t-28.5 -45.5t-36.5 -42.5t-43.5 -26t-55 -11.5q-60 0 -107 32.5t-70 88.5q-34 73 -24 162q5 56 29.5 125.5t62.5 135t95 110t118 44.5q35 0 71 -17.5t62 -45.5q8 36 21 80q7 22 24.5 34.5t38.5 12.5
q36 0 53 -33q9 -17 9.5 -43.5t-2.5 -46.5q-3 -44 -9.5 -125t-9.5 -125.5t-5 -125.5t5 -126q0 -1 2 -25t5 -41.5t7 -23.5zM217 561q-6 -38 0.5 -77.5t30.5 -51.5q22 16 61 70q72 112 131 278q1 2 0 4t-3 5t-3 4q-7 6 -26.5 11t-28.5 3q-38 0 -76 -49.5t-59.5 -105
t-26.5 -91.5z" />
    <glyph glyph-name="aring" unicode="&#xe5;" horiz-adv-x="684" 
d="M494 1157q0 -70 -54.5 -133t-124.5 -63q-41 0 -77 23t-54 65q-30 71 -2 153q10 38 33 58q23 17 61 24q18 12 46 12q59 0 114 -41t58 -98zM268 1190q-13 -43 1.5 -86t45.5 -43q14 0 27 8q18 9 35 34.5t16 43.5q0 27 -63 49q-27 13 -35 8q-3 -1 -8 -2.5t-8.5 -2.5
t-6.5 -3.5t-4 -5.5zM618 303q23 -31 4 -58.5t-55 -27.5q-33 0 -65.5 31t-46.5 65q-16 44 -23 119q-17 -33 -26.5 -50.5t-28.5 -45.5t-36.5 -42.5t-43.5 -26t-55 -11.5q-59 0 -106 32.5t-70 88.5q-35 74 -25 162q5 56 29.5 125.5t62.5 135t95 110t118 44.5q35 0 71 -17.5
t62 -45.5q8 36 21 80q7 22 24.5 34.5t38.5 12.5q36 0 53 -33q9 -17 9.5 -43.5t-2.5 -46.5q-3 -44 -9.5 -125t-9.5 -125.5t-5 -125.5t5 -126q0 -1 2 -25t5 -41.5t7 -23.5zM219 561q-6 -38 0.5 -77.5t30.5 -51.5q22 16 61 70q72 112 131 278q1 2 0 4t-3 5t-3 4q-7 6 -26.5 11
t-28.5 3q-38 0 -76 -49.5t-59.5 -105t-26.5 -91.5z" />
    <glyph glyph-name="ae" unicode="&#xe6;" horiz-adv-x="1030" 
d="M377 348q-35 -47 -66.5 -70.5t-79.5 -23.5q-61 0 -107.5 38.5t-68.5 93.5t-22 114q0 62 23 139t61.5 147.5t98 118t124.5 47.5q46 0 87.5 -25t64.5 -67q20 18 47 10q43 56 115.5 93.5t142.5 37.5q88 0 127 -32q30 -25 37.5 -64.5t-5 -79t-38.5 -73.5q-41 -49 -113 -76
q-86 -34 -215 -27q-9 -99 78 -151q45 -24 110 -31q15 -5 84.5 -3t85.5 1q27 0 42 -21t9 -47t-30 -39q-135 -71 -238 -71q-92 0 -169 55t-113 141q-48 -100 -72 -135zM723 858q-71 -47 -111 -125q62 7 144 38.5t104 68.5q5 8 6.5 21.5t-2.5 21.5q-1 2 -7 2.5t-7 1.5
q-81 4 -127 -29zM215 477q13 -35 25 -45q41 20 111 142t95 190q2 4 -8 14q-12 18 -38.5 25.5t-47.5 -0.5q-51 -24 -87.5 -93t-49.5 -135q-12 -60 0 -98z" />
    <glyph glyph-name="ccedilla" unicode="&#xe7;" horiz-adv-x="528" 
d="M444 158q-10 -41 -51 -102.5t-76 -61.5q-24 0 -38.5 17.5t-10.5 43.5q1 10 29.5 65.5t30.5 61.5q-15 9 -45.5 20t-42.5 17q-58 30 -52 94q2 38 31 115q-8 2 -29 10q-55 25 -100 84q-30 40 -42.5 94t-6.5 107q23 170 121 295q89 106 178 106q74 0 119 -77q12 -24 16 -72
q0 -5 -1.5 -26.5t-0.5 -33.5q3 -22 -10.5 -36.5t-32.5 -14.5q-13 0 -23.5 8.5t-13.5 22.5q-1 5 -5 37.5t-11 48.5q-5 11 -15.5 16.5t-19.5 -0.5q-53 -37 -84.5 -120t-34.5 -160q-1 -38 19 -70t57 -49q58 -23 78 -23h43q39 3 50.5 -34.5t-19.5 -59.5q-63 -44 -129 -55
q-2 -7 -9.5 -34t-12.5 -48.5t-5 -28.5q16 -8 47 -14.5t45 -11.5q41 -21 55 -56q13 -30 2 -75z" />
    <glyph glyph-name="egrave" unicode="&#xe8;" horiz-adv-x="645" 
d="M406 1264q27 -7 34.5 -31t-6.5 -45t-39 -21q-31 0 -65.5 12.5t-55.5 32.5q-28 23 -42 61.5t-7 72.5q3 19 17 29.5t30 10.5q24 0 35 -22q4 -20 4 -29q0 -26 30 -44.5t65 -26.5zM580 381q-148 -74 -238 -74q-99 0 -183 67.5t-112 164.5q-28 96 8 192q42 122 142 208.5
t221 86.5q48 0 89.5 -18.5t55.5 -59.5q23 -57 -5.5 -123.5t-84.5 -99.5q-43 -26 -100.5 -42.5t-106.5 -16.5q-19 0 -65 4q-6 -44 12 -82q23 -51 82 -78q46 -21 168 -25q5 0 46 1t48 1q27 0 43 -20.5t10.5 -46.5t-30.5 -39zM342 887q-74 -42 -117 -133q61 6 152 44t100 79
q0 26 -2 28q-4 4 -16 4q-62 6 -117 -22z" />
    <glyph glyph-name="eacute" unicode="&#xe9;" horiz-adv-x="645" 
d="M326 1139q-14 -17 -35 -17t-35 16t-8 40q8 43 47 82q11 13 43.5 42.5t44.5 36.5q7 0 14 7q25 9 43 -10.5t9 -45.5q-4 -10 -22.5 -34t-35 -43t-40.5 -46t-25 -28zM580 381q-148 -74 -238 -74q-99 0 -183 67.5t-112 164.5q-28 96 8 192q42 122 142 208.5t221 86.5
q48 0 89.5 -18.5t55.5 -59.5q23 -57 -5.5 -123.5t-84.5 -99.5q-43 -26 -100.5 -42.5t-106.5 -16.5q-19 0 -65 4q-6 -44 12 -82q23 -51 82 -78q46 -21 168 -25q5 0 46 1t48 1q27 0 43 -20.5t10.5 -46.5t-30.5 -39zM342 887q-74 -42 -117 -133q61 6 152 44t100 79q0 26 -2 28
q-4 4 -16 4q-62 6 -117 -22z" />
    <glyph glyph-name="ecircumflex" unicode="&#xea;" horiz-adv-x="651" 
d="M254 1163q-18 -18 -41 -18t-35.5 15.5t-3.5 39.5q3 14 12 25q11 17 68 89t72 89q28 31 63 31q17 0 29 -9q17 -12 41 -49q39 -65 53 -86q2 -3 22.5 -23.5t22.5 -25.5q9 -26 -7 -47t-44 -18q-14 3 -44 25t-42 36q-15 17 -45 66q-9 -10 -62.5 -72.5t-58.5 -67.5zM582 381
q-148 -74 -238 -74q-99 0 -183 67.5t-112 164.5q-28 96 8 192q42 122 142 208.5t221 86.5q48 0 89.5 -18.5t55.5 -59.5q23 -57 -5.5 -123.5t-84.5 -99.5q-43 -26 -100.5 -42.5t-106.5 -16.5q-19 0 -65 4q-6 -44 12 -82q23 -51 82 -78q46 -21 168 -25q5 0 46 1t48 1
q27 0 43 -20.5t10.5 -46.5t-30.5 -39zM344 887q-74 -42 -117 -133q61 6 152 44t100 79q0 26 -2 28q-4 4 -16 4q-62 6 -117 -22z" />
    <glyph glyph-name="edieresis" unicode="&#xeb;" horiz-adv-x="641" 
d="M578 381q-148 -74 -238 -74q-99 0 -183 67.5t-112 164.5q-28 96 8 192q42 122 142 208.5t221 86.5q48 0 89.5 -18.5t55.5 -59.5q23 -57 -5.5 -123.5t-84.5 -99.5q-43 -26 -100.5 -42.5t-106.5 -16.5q-19 0 -65 4q-6 -44 12 -82q23 -51 82 -78q46 -21 168 -25q5 0 46 1
t48 1q27 0 43 -20.5t10.5 -46.5t-30.5 -39zM270 1204q-12 -4 -20 -4q-22 0 -35 18.5t-8 42.5t29 37q1 0 8 3.5t8 3.5q25 9 44 -9t13 -43v-2q0 -33 -30 -43q-5 0 -9 -4zM434 1194q-25 -7 -43.5 10t-15.5 43q3 21 18 33t35 12q16 0 29 -8l4 -4q24 -11 23 -37.5t-25 -38.5
q-15 -8 -25 -10zM340 887q-74 -42 -117 -133q61 6 152 44t100 79q0 26 -2 28q-4 4 -16 4q-62 6 -117 -22z" />
    <glyph glyph-name="igrave" unicode="&#xec;" horiz-adv-x="401" 
d="M322 1237q29 -10 36.5 -38t-9.5 -52.5t-48 -24.5q-41 0 -92 13.5t-76.5 24t-87.5 36.5q-27 14 -26 44.5t26 49.5q8 8 23 8q19 0 32 -16q21 -4 69.5 -11.5t84.5 -15t68 -18.5zM362 438q3 -24 -13 -42.5t-40 -18.5q-26 3 -47.5 21.5t-34.5 46t-21 55.5t-11 57q-5 47 -2 109
q0 2 1.5 18.5t2.5 24t3 25t4 28t5.5 25.5t7.5 24.5t9.5 18.5t11.5 14l16 8q11 8 22 8q20 0 35 -22.5t13 -49.5q-1 -26 11.5 -123.5t20.5 -134.5q6 -33 6 -92z" />
    <glyph glyph-name="iacute" unicode="&#xed;" horiz-adv-x="397" 
d="M102 1098q-18 -11 -28 -11q-29 0 -43.5 29.5t4.5 57.5q36 48 102.5 106t116.5 80q8 2 22.5 1.5t22.5 0.5q36 8 55 -6q22 -19 12.5 -47.5t-38.5 -28.5q-15 0 -17 -2q-4 -6 -31.5 -28.5t-29.5 -24.5q-127 -114 -148 -127zM315 438q3 -24 -13 -42.5t-40 -18.5
q-34 4 -60 35.5t-37.5 67.5t-17.5 77q-5 47 -2 109q0 2 1.5 18.5t2.5 24t3 25t4 28t5.5 25.5t7.5 24.5t9.5 18.5t11.5 14q2 2 5 3.5t7 2.5t5 2q11 8 22 8q20 0 34.5 -22.5t12.5 -49.5q-1 -26 12 -123t21 -135q6 -33 6 -92z" />
    <glyph glyph-name="icircumflex" unicode="&#xee;" horiz-adv-x="509" 
d="M291 438q3 -25 -13.5 -43t-41.5 -18q-34 4 -60 35.5t-37 68t-16 76.5q-5 47 -2 109q7 150 43 178q6 4 18 8q11 8 23 8q20 0 34.5 -22.5t12.5 -49.5q-1 -26 11.5 -124t19.5 -134q8 -46 8 -67v-25zM104 1061q-16 -8 -26 -8q-23 0 -38.5 18.5t-12.5 44.5q7 38 41 41
q32 34 91 92t79 70q28 14 55 14q47 0 120.5 -88.5t73.5 -132.5q0 -23 -16 -39t-37 -16q-15 0 -28 10q-23 16 -43 39t-43.5 54t-36.5 46q-28 -19 -85.5 -71.5t-93.5 -73.5z" />
    <glyph glyph-name="idieresis" unicode="&#xef;" horiz-adv-x="448" 
d="M150 1055q-27 -41 -74 -41q-23 0 -39 12.5t-17 36.5q-2 23 13.5 41.5t38.5 21.5q12 0 16 2q14 7 25 7q27 0 41 -27t-4 -53zM399 999q-15 -10 -34 -10q-34 0 -49 28t12 54q13 11 55 16q31 7 43.5 -21t-10.5 -50q-3 -2 -8.5 -8.5t-8.5 -8.5zM305 438q3 -25 -13.5 -43
t-41.5 -18q-34 4 -59.5 35.5t-37 68t-16.5 76.5q-5 47 -2 109q7 149 45 178q4 4 17 8q11 8 22 8q20 0 34.5 -22.5t12.5 -49.5q-1 -26 11.5 -124t19.5 -134q10 -38 10 -67q0 -2 -1 -13t-1 -12z" />
    <glyph glyph-name="eth" unicode="&#xf0;" horiz-adv-x="667" 
d="M565 563q-16 -62 -42.5 -119t-65.5 -108t-95.5 -82t-121.5 -31q-71 0 -127 38t-70 106q-15 64 8 131q40 108 143 197t224 139q-11 62 -37 127q-27 -16 -49 -33q-133 -93 -139 -99q-2 -3 -5.5 -10t-5.5 -10q-12 -23 -37 -23q-20 0 -32.5 16.5t-3.5 39.5q9 24 35.5 53
t71.5 62t63.5 46t60.5 41q-38 58 -90 113q-5 7 -21.5 21.5t-23.5 17.5q-28 11 -34.5 40.5t19.5 47.5q20 14 54 14q66 0 129 -53q53 -38 100 -112q80 54 94 61q12 6 21 6q27 0 37 -29t-15 -49q-4 -3 -19.5 -14t-35.5 -25t-39 -28q53 -114 66.5 -242t-17.5 -250zM147 397
q11 -49 74 -49q74 0 135 82q83 129 76 299q-102 -57 -173.5 -117.5t-100.5 -140.5q-17 -52 -11 -74z" />
    <glyph glyph-name="ntilde" unicode="&#xf1;" horiz-adv-x="737" 
d="M668 1300q-22 -100 -88 -100q-28 0 -56 21q-4 3 -54 50.5t-67 51.5q-14 3 -29 0t-35.5 -10.5t-29.5 -9.5q-4 -1 -25.5 -5.5t-25.5 -5.5q-12 -6 -20 -6q-17 0 -27.5 15.5t-7 36t21.5 34.5q28 22 85.5 47.5t86.5 26.5q41 0 86 -29q16 -11 32.5 -26.5t35 -35t29.5 -30.5
q3 -3 5 4q0 1 0.5 2t0.5 2q16 23 37 23t35 -16t10 -40zM670 340q-14 -35 -54 -35q-44 0 -75.5 40t-34.5 87q-2 13 -17 151t-20 160q-65 -94 -139 -241q-4 -8 -17.5 -37t-20.5 -42t-19.5 -33.5t-24.5 -35.5q-34 -39 -78 -39q-43 0 -77.5 35.5t-43.5 81.5q-12 61 -4 189
q6 82 25 176t51 145q14 21 39 27q25 4 41.5 -15.5t19.5 -48.5q4 -27 -2 -180t-6 -156q14 21 84 135.5t115 169.5q4 5 11.5 15.5t12.5 17t13 14t16 11.5q15 10 41 10q67 0 119 -111q39 -89 55 -268q12 -122 10 -147q0 -36 -10 -58q-1 -1 -5 -9t-5 -9z" />
    <glyph glyph-name="ograve" unicode="&#xf2;" horiz-adv-x="616" 
d="M420 1237q31 -29 11 -66.5t-60 -25.5q-22 7 -44.5 18.5t-49 27t-41.5 23.5q-5 2 -12 9t-9 8q-23 19 -13.5 47.5t38.5 30.5q4 0 11 1t11 1q25 -1 80.5 -28t77.5 -46zM524 563q-44 -54 -115.5 -87.5t-142.5 -33.5q-79 0 -145.5 36t-85.5 106q-13 50 4 114q36 113 106 201
q37 48 93 84.5t98 22.5q29 -7 47 -25q2 -2 12 -2q34 -1 68.5 -20t58.5 -48q63 -72 64 -174t-62 -174zM199 647q23 -20 63 -20q63 0 127 39q49 34 53 63q8 39 -11.5 78.5t-55.5 52.5q-2 1 -30.5 7t-39.5 16q-30 -39 -66 -115.5t-40 -120.5z" />
    <glyph glyph-name="oacute" unicode="&#xf3;" horiz-adv-x="616" 
d="M223 1237q-17 -10 -28 -10q-28 0 -40.5 28.5t11.5 53.5q101 101 135 110q15 4 43 -4q23 -5 29 -25t-7 -38.5t-36 -18.5q-76 -72 -107 -96zM524 563q-44 -54 -115.5 -87.5t-142.5 -33.5q-79 0 -145.5 36t-85.5 106q-13 50 4 114q36 113 106 201q37 48 93 84.5t98 22.5
q29 -7 47 -25q2 -2 12 -2q34 -1 68.5 -20t58.5 -48q63 -72 64 -174t-62 -174zM199 647q23 -20 63 -20q63 0 127 39q49 34 53 63q8 39 -11.5 78.5t-55.5 52.5q-2 1 -30.5 7t-39.5 16q-30 -39 -66 -115.5t-40 -120.5z" />
    <glyph glyph-name="ocircumflex" unicode="&#xf4;" horiz-adv-x="624" 
d="M485 1251q20 -12 23 -33t-9.5 -37t-33.5 -16q-31 0 -76 52t-72 98q-6 -6 -38 -36t-61 -57.5t-38 -33.5q-17 -10 -26 -10q-27 0 -38.5 26.5t9.5 52.5q9 9 69.5 73t69.5 73q20 24 45 33q28 6 49 -9q32 -19 127 -176zM528 563q-44 -54 -115.5 -87.5t-142.5 -33.5
q-79 0 -145.5 36t-85.5 106q-13 50 4 114q36 111 107 201q37 48 93 84.5t97 22.5q29 -7 47 -25q2 -2 12 -2q34 -1 68.5 -20t58.5 -48q63 -72 64 -174t-62 -174zM203 647q23 -20 63 -20q63 0 127 39q49 34 53 63q8 39 -11.5 78.5t-55.5 52.5q-2 1 -30.5 7t-39.5 16
q-30 -39 -66 -115.5t-40 -120.5z" />
    <glyph glyph-name="otilde" unicode="&#xf5;" horiz-adv-x="620" 
d="M498 1266q4 -46 -24.5 -81.5t-67.5 -35.5q-29 0 -52 20q-19 16 -48.5 54t-35.5 45q-3 -20 -16 -30.5t-31 -10.5q-27 0 -43 22q-7 10 -7.5 28t5.5 30q12 32 37.5 51.5t56.5 19.5q18 0 33 -6q8 -3 15 -7.5t14.5 -11.5t12.5 -11.5t13 -14t11 -14t11.5 -15.5t10.5 -14
q8 35 45 35q22 0 39.5 -14t20.5 -39zM524 563q-44 -54 -115.5 -87.5t-142.5 -33.5q-79 0 -145.5 36t-85.5 106q-13 50 4 114q36 113 106 201q37 48 93 84.5t98 22.5q29 -7 47 -25q2 -2 12 -2q34 -1 68.5 -20t58.5 -48q63 -72 64 -174t-62 -174zM199 647q23 -20 63 -20
q63 0 127 39q49 34 53 63q8 39 -11.5 78.5t-55.5 52.5q-2 1 -30.5 7t-39.5 16q-30 -39 -66 -115.5t-40 -120.5z" />
    <glyph glyph-name="odieresis" unicode="&#xf6;" horiz-adv-x="618" 
d="M264 1157q-12 -35 -49 -35q-29 0 -45 29q-15 31 6 59t55 23q3 -2 5 0q25 0 35.5 -22t-3.5 -44q-1 -1 -2 -4.5t-2 -5.5zM457 1112q-19 -2 -38.5 9.5t-25.5 29.5q-7 27 9 46.5t40 19.5q17 0 33 -13q30 -4 33.5 -32.5t-23.5 -47.5q-12 -9 -28 -12zM524 563
q-44 -54 -115.5 -87.5t-142.5 -33.5q-79 0 -145.5 36t-85.5 106q-13 50 4 114q36 113 106 201q37 48 93 84.5t98 22.5q29 -7 47 -25q2 -2 12 -2q34 -1 68.5 -20t58.5 -48q63 -72 64 -174t-62 -174zM199 647q23 -20 63 -20q63 0 127 39q49 34 53 63q8 39 -11.5 78.5
t-55.5 52.5q-2 1 -30.5 7t-39.5 16q-30 -39 -66 -115.5t-40 -120.5z" />
    <glyph glyph-name="divide" unicode="&#xf7;" horiz-adv-x="921" 
d="M518 1044q19 -33 -1.5 -62t-55.5 -17l-16 4t-19 4q-37 6 -51 43t8 69q23 29 53 29q40 0 58 -37q21 -9 24 -33zM301 610q-47 -5 -107 -2t-104 21q-26 11 -35.5 37t3 49.5t40.5 27.5q4 0 49 15q18 0 31 -10q54 6 144 26q339 62 407 64q52 3 102 -23q36 -23 37.5 -64.5
t-32.5 -66.5q-42 -31 -154 -39q-271 -30 -381 -35zM567 215q-24 -21 -57 -8q-45 21 -44 73t44 82q1 0 8 4.5t8 4.5q13 8 31 8q33 0 51.5 -30t1.5 -64q-22 -56 -43 -70z" />
    <glyph glyph-name="oslash" unicode="&#xf8;" horiz-adv-x="909" 
d="M94 268q-11 -20 -33 -20q-20 0 -33 17.5t-3 39.5q11 22 83.5 101.5t118.5 125.5q-16 21 -26 52q-13 50 4 114q36 113 106 201q37 48 93.5 84.5t99.5 22.5q27 -7 45 -25q2 -2 12 -2q43 -3 84 -29l8 8q7 6 39.5 37.5t46.5 43.5t41 31.5t51 31.5q12 4 19 4q29 0 37.5 -30.5
t-19.5 -47.5q-2 -1 -13 -7t-13 -7q-40 -28 -140 -121q54 -72 51 -167.5t-61 -162.5q-46 -54 -118 -87.5t-142 -33.5q-60 0 -121 23l-24 12q-111 -114 -162 -172l-13 -15q-13 -14 -18 -22zM381 702q-6 -9 -6 -18q56 60 172 172l-4 4q-8 3 -24 5.5t-27.5 6.5t-20.5 11
q-47 -65 -90 -181zM432 627q59 0 123 39q48 34 55 63q3 36 -8 68q-85 -82 -170 -170z" />
    <glyph glyph-name="ugrave" unicode="&#xf9;" horiz-adv-x="747" 
d="M498 1292q25 -23 11 -55.5t-44 -32.5q-12 0 -21 6q-7 3 -39 20t-61.5 31t-40.5 15q-24 3 -36 20.5t-8 39t24 34.5q11 8 30 8q39 0 107 -35q9 -4 39.5 -24.5t38.5 -26.5zM367 358q-64 -84 -138 -84q-54 0 -98.5 42.5t-64.5 105.5q-16 55 -19 125t1.5 117.5t14.5 126.5
q31 208 107 208q21 0 37 -13t20 -34q10 -50 6 -127q0 -12 -4 -89t-4 -87q0 -132 19 -186q33 30 53 65q21 34 42.5 76t35.5 72.5t37 82t34 75.5q5 8 29 69.5t29 69.5q29 45 69 45q48 0 70 -43q6 -12 9 -44t3 -60t-1 -66t-1 -43q0 -212 25 -356q27 -12 31 -41t-19 -48
q-14 -11 -31 -18q-15 -6 -28 -6q-36 0 -63 23.5t-42 57t-24.5 78t-12.5 77.5t-4 65q-5 -11 -24.5 -57.5t-29 -66.5t-27.5 -53.5t-37 -58.5z" />
    <glyph glyph-name="uacute" unicode="&#xfa;" horiz-adv-x="749" 
d="M438 1165q-15 -18 -35 -18q-21 0 -35.5 17.5t-7.5 41.5q10 34 56 66q19 17 55 41.5t53 27.5q2 0 21 4.5t22 4.5q24 3 36 -15t5 -39.5t-30 -27.5q-2 -1 -10.5 -3t-10.5 -3q-7 -5 -24.5 -17t-26.5 -18.5t-23 -17.5t-25 -21.5t-20 -22.5zM367 358q-64 -84 -138 -84
q-54 0 -98.5 42.5t-64.5 105.5q-16 55 -19 125t1.5 117.5t14.5 126.5q31 208 107 208q21 0 37 -13t20 -34q10 -50 6 -127q0 -12 -4 -89t-4 -87q0 -132 19 -186q33 30 53 65q21 34 42.5 76t35.5 72.5t37 82t34 75.5q5 8 29 69.5t29 69.5q29 45 69 45q48 0 70 -43q6 -12 9 -44
t3 -60t-1 -66t-1 -43q0 -212 25 -356q27 -12 31 -41t-19 -48q-14 -11 -31 -18q-15 -6 -28 -6q-36 0 -63 23.5t-42 57t-24.5 78t-12.5 77.5t-4 65q-5 -11 -24.5 -57.5t-29 -66.5t-27.5 -53.5t-37 -58.5z" />
    <glyph glyph-name="ucircumflex" unicode="&#xfb;" horiz-adv-x="749" 
d="M272 1161q-17 -10 -28 -10q-31 0 -42 27t17 49q14 11 54.5 57t79.5 82.5t61 38.5q28 3 57 -23q42 -37 102 -112q19 -26 4.5 -52t-42.5 -26q-17 0 -27 10q-33 29 -90 86q-97 -93 -146 -127zM367 358q-64 -84 -138 -84q-54 0 -98.5 42.5t-64.5 105.5q-16 55 -19 125
t1.5 117.5t14.5 126.5q31 208 107 208q21 0 37 -13t20 -34q10 -50 6 -127q0 -12 -4 -89t-4 -87q0 -132 19 -186q33 30 53 65q21 34 42.5 76t35.5 72.5t37 82t34 75.5q5 8 29 69.5t29 69.5q29 45 69 45q48 0 70 -43q6 -12 9 -44t3 -60t-1 -66t-1 -43q0 -212 25 -356
q27 -12 31 -41t-19 -48q-14 -11 -31 -18q-15 -6 -28 -6q-36 0 -63 23.5t-42 57t-24.5 78t-12.5 77.5t-4 65q-5 -11 -24.5 -57.5t-29 -66.5t-27.5 -53.5t-37 -58.5z" />
    <glyph glyph-name="udieresis" unicode="&#xfc;" horiz-adv-x="743" 
d="M500 1159q-32 -7 -53.5 18.5t-10.5 57.5q6 17 28.5 31t41.5 14q31 0 45 -30t-6 -56q-24 -28 -45 -35zM307 1225q18 -32 -2 -57t-53 -25t-49 24q-22 32 -3.5 63.5t52.5 31.5q19 0 35 -13q5 -3 20 -24zM365 358q-64 -84 -138 -84q-54 0 -99.5 43t-64.5 105
q-16 55 -18.5 125.5t1.5 116.5t15 127q31 208 107 208q21 0 37 -13t20 -34q10 -50 6 -127q0 -12 -4 -89t-4 -87q0 -132 19 -186q33 30 53 65q21 34 42.5 76t35.5 72.5t37 82t34 75.5q5 8 29 69.5t29 69.5q29 45 69 45q48 0 70 -43q6 -12 9 -44t3 -60t-1 -66t-1 -43
q0 -212 25 -356q27 -12 31 -41t-19 -48q-14 -11 -31 -18q-15 -6 -28 -6q-36 0 -63 23.5t-42 57t-24.5 78t-12.5 77.5t-4 65q-5 -11 -24.5 -57.5t-29 -66.5t-27.5 -53.5t-37 -58.5z" />
    <glyph glyph-name="yacute" unicode="&#xfd;" horiz-adv-x="706" 
d="M512 1272q-13 -24 -31.5 -52.5t-47.5 -59t-48 -30.5q-21 0 -36 17t-11 41q1 11 14.5 32.5t27 39.5t32.5 42t22 29q18 21 43 21q9 0 23 -9q15 -12 18 -33t-6 -38zM596 -143q-18 -9 -37 -9q-37 0 -70 26.5t-51 66.5q-20 51 -24 147q-4 107 22 361q-42 -71 -91.5 -115.5
t-115.5 -44.5q-45 0 -79 22.5t-52.5 55.5t-30 79t-15 83.5t-3.5 78.5q0 49 7.5 129.5t33.5 169t64 88.5q24 0 40 -20t7 -45q5 -47 0 -189q-4 -162 18 -252q7 -36 19 -45q3 -3 8 2q45 20 92 95q28 44 86 168t65 165q12 59 25 82q19 37 61 37q32 0 54 -23.5t16 -60.5l-2 -4
q1 -53 -26 -401.5t-27 -394.5q-3 -83 14 -156q28 -19 25.5 -51.5t-33.5 -44.5z" />
    <glyph glyph-name="thorn" unicode="&#xfe;" horiz-adv-x="641" 
d="M250 -82q1 -22 -13 -37.5t-34 -15.5q-17 0 -29 12q-35 31 -59 186q-30 191 -31 418.5t12.5 397.5t42.5 419q4 48 -2 72q-6 28 17 62q18 24 47 24q28 0 43 -24q15 -19 18 -35q6 -57 2.5 -152t-8.5 -153q-1 -23 -6 -140q54 13 100 13q95 0 170 -54.5t82 -146.5
q6 -76 -51 -158q-52 -79 -137.5 -149t-177.5 -115v-16q1 -40 2.5 -128t4 -154t7.5 -126zM244 838q-8 -153 -8 -349q27 26 73 69t53 50l13 13l14 14t12.5 13t13.5 15.5t11 14t12 16t9 15.5t8 18q12 35 -15.5 63.5t-70.5 40.5q-49 14 -125 7z" />
    <glyph glyph-name="ydieresis" unicode="&#xff;" horiz-adv-x="704" 
d="M524 1155q-19 -22 -49 -22t-47.5 23.5t-3.5 55.5q11 29 39 35q36 12 59 2q24 2 37 -15.5t7 -38.5t-29 -28q-9 -5 -13 -12zM238 1133q-29 -8 -47 11t-13 46t33 39q12 4 20 4q18 0 32.5 -10t17.5 -27q0 -4 2 -4q9 -23 -4 -41t-37 -18h-4zM596 -143q-18 -9 -37 -9
q-37 0 -70 26.5t-51 66.5q-20 51 -24 147q-4 107 22 361q-42 -71 -91.5 -115.5t-115.5 -44.5q-45 0 -79 22.5t-52.5 55.5t-30 79t-15 83.5t-3.5 78.5q0 49 7.5 129.5t33.5 169t64 88.5q24 0 40 -20t7 -45q5 -47 0 -189q-4 -162 18 -252q7 -36 19 -45q3 -3 8 2q45 20 92 95
q28 44 86 168t65 165q12 59 25 82q19 37 61 37q32 0 54 -23.5t16 -60.5l-2 -4q1 -53 -26 -401.5t-27 -394.5q-3 -83 14 -156q28 -19 25.5 -51.5t-33.5 -44.5z" />
    <glyph glyph-name="Lslash" unicode="&#x141;" horiz-adv-x="940" 
d="M729 45q-85 -49 -153 -76.5t-138 -27.5q-72 0 -128 27.5t-91.5 76.5t-56.5 107t-31 129h-16q-23 3 -33 24q-13 25 1 47t40 17q-8 142 16 327q-15 -6 -35 -6q-16 0 -34 6q-23 9 -26.5 31.5t12 39t38.5 9.5q1 0 3.5 -1t4.5 -1.5t4 0.5q14 3 50 21q7 44 17 91t27.5 113.5
t37.5 126t49 120.5t60.5 105t73 71.5t85.5 27.5q55 0 82 -41q25 -38 18 -96q-16 -125 -99 -258t-190 -236q-32 -201 -32 -342q71 49 135 92q2 1 13 8.5t13 8.5q34 15 52 -18t-11 -56q-105 -78 -198 -141q0 -7 1 -21.5t1 -21.5q5 -35 9.5 -56t13 -55t21 -55.5t30 -44t44 -33
t58.5 -10.5q44 0 90 16q67 21 185 85t132 71q6 4 19 4q29 0 39.5 -30t-14.5 -52q-26 -18 -189 -123zM506 1356q-30 -9 -59 -58t-50 -118.5t-33 -118.5t-20 -90q64 81 119.5 184.5t58.5 177.5q0 10 -4 17t-12 6z" />
    <glyph glyph-name="lslash" unicode="&#x142;" horiz-adv-x="542" 
d="M356 78q-1 -24 -16.5 -37.5t-36.5 -13.5q-34 0 -64 48.5t-48.5 120t-29 126.5t-14.5 94q-40 -31 -75 -31q-20 0 -31.5 18t-5.5 39q5 16 18 28.5t27 12.5q21 12 65 47q-2 168 29 471q1 12 9.5 85.5t9.5 84.5q20 131 28 162q5 10 12 31q3 22 19.5 34.5t36.5 12.5
q28 0 44.5 -26t22.5 -58q10 -56 6 -201q-2 -80 -11.5 -228.5t-12.5 -211.5q94 78 102 84q13 10 27 10q29 0 41.5 -29.5t-10.5 -54.5q-85 -85 -166 -149q0 -162 10 -287q0 -3 4.5 -49t7.5 -84t2 -49z" />
    <glyph glyph-name="OE" unicode="&#x152;" horiz-adv-x="1597" 
d="M635 227q-49 -56 -97 -84t-114 -28q-67 0 -127.5 41t-102 105.5t-68.5 132t-40 132.5q-36 168 -2 383q23 149 104.5 309t192.5 230q48 33 100 33q58 -3 113 -51q37 -2 73 -21t64 -47t52.5 -64t41.5 -71t29 -70q32 103 59 146q-14 18 -7 43t32 34q31 12 122.5 21.5
t147.5 9.5q128 0 240 -33q23 -7 31 -29t-3.5 -43t-35.5 -26q-74 -12 -148 -12q-36 0 -76 2t-89 5.5t-76 4.5q-4 2 -21 2q-7 -14 -16 -20q-4 -25 -28.5 -154t-33.5 -199h9q13 10 30 13q238 59 381 59q27 -1 40.5 -22.5t6 -46.5t-32.5 -35q-152 -58 -356 -58q-26 0 -88 8
q-5 -31 -8 -77q-3 -50 1.5 -104.5t18 -110t43 -97.5t70.5 -57q21 -6 43 -6q51 0 128.5 42.5t140.5 100.5t77 100q3 8 3 27.5t3 28.5q12 28 39 28q16 0 29 -10.5t16 -29.5q3 -38 0 -76q-5 -71 -61 -152q-74 -104 -174 -172.5t-211 -68.5q-113 0 -195 76.5t-117 191.5
q-61 -135 -153 -234zM414 289q6 -4 20 -4q39 0 94 55q124 130 183 299q37 105 43 215.5t-23 218.5q-32 121 -115 207q-6 1 -50 19t-52 18q-16 2 -37 -19q-85 -88 -143 -217q-55 -120 -70 -259.5t10 -270.5q15 -77 51 -153.5t89 -108.5z" />
    <glyph glyph-name="oe" unicode="&#x153;" horiz-adv-x="1089" 
d="M1030 395q-142 -73 -237 -73t-177 63.5t-112 155.5q-48 -45 -111.5 -72t-126.5 -27q-79 0 -145.5 36t-85.5 106q-13 50 4 114q36 113 106 201q37 48 93 84.5t98 22.5q29 -7 47 -25q2 -2 12 -2q52 -3 95.5 -38t68.5 -85q50 78 130 130t167 52q152 0 166 -100
q9 -55 -16.5 -109.5t-75.5 -85.5q-68 -41 -144 -53q-60 -11 -135 -4q-4 -67 29 -108q31 -39 80 -58q35 -13 73.5 -17t98.5 -2.5t78 1.5q27 0 41.5 -21t8.5 -47t-30 -39zM784 895q-73 -48 -108 -125q64 6 152 41t100 76q4 25 -2 33q-2 4 -15 4q-79 4 -127 -29zM199 647
q23 -20 63 -20q63 0 127 39q49 34 53 63q8 39 -11.5 78.5t-55.5 52.5q-2 1 -30.5 7t-39.5 16q-30 -39 -66 -115.5t-40 -120.5z" />
    <glyph glyph-name="Scaron" unicode="&#x160;" horiz-adv-x="1144" 
d="M594 1624q-19 -40 -49.5 -68t-65.5 -28q-38 0 -86 49.5t-53 85.5q-3 23 10.5 38t34.5 15q11 0 23 -6q4 -4 16 -4q25 -11 29 -37q3 -4 18 -19.5t21 -19.5q9 9 15 21t13 32t10 27q6 15 18.5 24t24.5 9q27 0 37 -29q10 -28 -16 -90zM1040 123q-11 -37 -36 -64t-58 -42
t-68 -22t-73 -7q-110 0 -240 40.5t-178 110.5q-20 32 -2.5 64.5t49.5 32.5q13 0 31 -11q27 -18 121.5 -35.5t148.5 -21.5q43 -6 86 -6q42 4 58 12q-24 41 -111.5 104.5t-172 113t-196 112t-131.5 74.5q-50 30 -87 56.5t-76.5 68.5t-55.5 85q-39 89 -4 183q28 79 135 178
q152 139 364.5 246t391.5 110q70 0 117.5 -29.5t54.5 -95.5q10 -84 -61 -186q-44 -68 -114 -129.5t-136 -71.5q-23 -3 -45 6q-22 8 -26 30t11 39t39 11q1 0 5 -1t5 -1q76 28 162 146q40 64 49 88q14 55 -4 65q-13 8 -41 8q-98 0 -235.5 -57.5t-237.5 -124.5q-37 -26 -74 -55
t-82.5 -70t-77.5 -84t-40 -78q-9 -27 10 -57q24 -40 123 -104.5t225 -134t146 -82.5q283 -173 329 -312q15 -49 2 -102z" />
    <glyph glyph-name="scaron" unicode="&#x161;" horiz-adv-x="503" 
d="M442 1405q-8 -36 -19.5 -69t-30.5 -69.5t-48.5 -58.5t-64.5 -22q-37 0 -66 26q-32 23 -71 84.5t-40 98.5q-1 23 14 37t34 14t31 -11.5t12 -33.5q5 -11 28.5 -40t34.5 -40q24 -16 25 -16q7 0 16 18q13 20 27 62.5t18 52.5q8 21 24.5 35t34.5 14q12 0 23 -8q13 -9 18 -32.5
t0 -41.5zM446 504q-33 -53 -135 -111.5t-164 -58.5q-36 0 -66 17t-36 48q-6 29 15.5 49t50.5 11q106 42 176 104q-23 20 -82 64t-88 71q-53 49 -66 84q-17 47 0 86q19 48 80 95.5t111 48.5q57 0 86 -33q20 -23 7.5 -48.5t-38.5 -25.5q-14 0 -27 13q-6 6 -10 6
q-26 -11 -65 -74q-1 -3 0 -4t5 -4t5 -4q18 -13 52 -37t55.5 -39t49 -38t48.5 -44q41 -41 49 -82q12 -48 -13 -94z" />
    <glyph glyph-name="Ydieresis" unicode="&#x178;" horiz-adv-x="927" 
d="M616 1636q25 -28 11 -60.5t-49 -23.5q-33 -5 -49.5 19.5t-5.5 52t44 31.5q10 0 26.5 -6t22.5 -13zM434 1597q3 -24 -14 -39.5t-41 -15.5h-8q-24 2 -35.5 21.5t-5 42t29.5 32.5q23 9 47 -4.5t27 -36.5zM741 -8q-28 -8 -47 -8q-55 4 -87 48.5t-42 106.5q-15 103 -12 246
q0 210 37 455q-83 -148 -182 -283q-71 -94 -148 -94q-26 0 -49 10q-128 54 -141 283q-16 250 28 471q19 109 47 168q15 30 48 30q21 0 36 -18q11 -15 14.5 -50.5t1 -66t-7.5 -74.5t-6 -53q-6 -77 -8.5 -169t6 -209t33.5 -158q7 -13 10 -15q5 0 9 4q23 12 67 69.5t74 102.5
q136 215 254 480q17 34 24 92q5 35 27 60.5t55 25.5q30 0 53.5 -20.5t24.5 -53.5q1 -20 -9.5 -96t-16.5 -109q-3 -16 -16 -98t-16.5 -107t-14 -95.5t-14.5 -108t-10.5 -96t-9.5 -108t-5 -99.5q-1 -55 2 -167t2 -169q0 -2 -1 -8.5t-1 -11t2 -5.5q29 -20 25 -55t-36 -47z" />
    <glyph glyph-name="Zcaron" unicode="&#x17d;" horiz-adv-x="968" 
d="M639 1544q-15 -6 -35 -6q-29 0 -55 16q-25 16 -51 54.5t-25 64.5q0 22 15.5 37.5t33.5 15.5q24 0 35 -22q9 -20 24.5 -35.5t32.5 -15.5q19 0 39.5 16.5t28.5 34.5q2 4 12 29q12 24 39 24q16 0 28 -10.5t13 -28.5q4 -51 -39 -103.5t-96 -70.5zM850 172q-123 -80 -266 -134
t-269 -54q-80 0 -149.5 31.5t-102.5 95.5q-25 55 -22 127q6 75 47 149q46 93 114 181t167 198q-20 16 -43 39q-19 29 -21 43q-1 26 13.5 41.5t33.5 15.5q16 0 27 -11.5t10 -33.5q6 -7 37 -31q37 39 111 113q15 15 61 60t76.5 76t58.5 63q1 1 9.5 10.5t13.5 16t12 16t10 17
t2 13.5q0 1 -2 4.5t-2 4.5q-37 41 -154.5 57t-226.5 16q-160 0 -200 -24q-12 -6 -21 -6q-27 0 -37.5 26.5t13.5 46.5q42 37 160.5 52.5t230.5 15.5q47 0 91.5 -4t100 -16.5t95.5 -33.5t68 -59.5t28 -89.5q0 -37 -14.5 -75.5t-44.5 -78.5t-50.5 -64t-56.5 -62
q-50 -58 -183 -195q18 -12 43 -29t39.5 -27.5t20.5 -15.5q24 -23 11.5 -52.5t-42.5 -29.5q-6 0 -20 7q-21 11 -64 41q-13 10 -53 36q-61 -69 -101.5 -118.5t-90.5 -125t-72 -136.5q-19 -44 -10 -72q4 -14 49 -27q27 -6 53 -6q32 0 123 14q28 4 188 42.5t166 39.5
q27 7 45.5 -11t16 -44.5t-26.5 -42.5z" />
    <glyph glyph-name="zcaron" unicode="&#x17e;" horiz-adv-x="645" 
d="M336 1214q-21 -18 -49 -18q-46 0 -87 53.5t-46 100.5q-5 22 8.5 40.5t36.5 18.5q21 0 34.5 -12.5t12.5 -32.5q13 -24 37 -51q12 24 26.5 79t28.5 81q11 22 39 22q18 0 30.5 -11t12.5 -30q0 -45 -27.5 -131t-56.5 -109zM590 432q-82 -48 -186 -76t-199 -28q-58 0 -99 15
t-61 60q-14 35 -4 76q7 36 61 120.5t123.5 181t79.5 112.5q-36 13 -105 22.5t-98 18.5q-23 8 -29 30.5t7 42t37 19.5q21 0 33 6q56 6 114 6q96 0 144 -30q74 -46 55 -129q-11 -44 -55 -115q-24 -35 -85.5 -118t-91.5 -130q7 1 89 9.5t152.5 15t90.5 6.5q28 0 44.5 -22
t12 -50t-29.5 -43z" />
    <glyph glyph-name="caron" unicode="&#x2c7;" horiz-adv-x="557" 
d="M340 907q-46 -22 -78 -22q-43 0 -79 28.5t-61 76t-40 87t-27 84.5q-8 27 0 47q9 27 39 27q24 0 35 -16q2 -2 8 -11.5t8.5 -14t5.5 -12.5t3 -14q29 -63 49 -100q10 -21 29 -46.5t32 -29.5q14 -5 35 8q72 38 117 105q-13 25 0.5 46t36.5 21q19 0 34.5 -18t18.5 -37
q5 -52 -50.5 -113.5t-115.5 -95.5z" />
    <glyph glyph-name="tilde" unicode="&#x2dc;" horiz-adv-x="542" 
d="M154 1038q19 -20 8 -45.5t-39 -25.5q-31 0 -45 2q-32 4 -36 39.5t17 64.5q45 67 109 84q18 6 37 6q22 0 43 -6q32 -9 86.5 -44t64.5 -40q10 70 13 78q11 33 43 33q33 0 39 -33q10 -38 -0.5 -92t-38.5 -76q-27 -21 -66 -14q-32 7 -86 41.5t-72 42.5q-15 6 -30 6
q-26 0 -47 -21z" />
    <glyph glyph-name="Germandbls" unicode="&#x1e9e;" horiz-adv-x="1105" 
d="M201 59q-31 -3 -54 27q-59 86 -59 520q1 85 5.5 158.5t18 168.5t35 170.5t60.5 152.5t91 128.5t129.5 84t172.5 32.5q42 0 94 -10q132 -24 222.5 -122t72.5 -220q-22 -149 -174 -291q-14 -14 -43.5 -35t-40.5 -30q102 -39 185.5 -122t115.5 -182q32 -112 -10 -198
q-38 -69 -109.5 -105t-156.5 -36t-162.5 37.5t-126.5 105.5q-22 29 -4.5 62.5t53.5 27.5q35 -3 127 -39q47 -20 100 -20q40 0 86.5 16t49.5 47q4 50 -68 127q-77 74 -160 109q-14 6 -42.5 14.5t-51 17.5t-39.5 23q-25 19 -33 52.5t4 62.5q15 37 62 67q12 7 53.5 42t54.5 48
q4 7 9.5 14t14 16t11.5 13q79 92 103 148q10 20 10 41q1 32 -33 62t-74 44q-61 21 -112 21q-53 0 -96 -15t-73 -38.5t-54 -61t-38 -73.5t-25 -86.5t-16 -88.5t-10 -90q-12 -104 -16.5 -219.5t-5.5 -261.5t-4 -221q22 -12 22 -37t-22 -37q-34 -19 -49 -21z" />
    <glyph glyph-name="quoteleft" unicode="&#x2018;" horiz-adv-x="219" 
d="M156 1200q-9 -45 -56 -45q-22 0 -37.5 14t-15.5 39v43q1 5 7 40t7 40q10 47 50 66q22 9 40.5 -5.5t18.5 -39.5q0 -77 -4 -109q-8 -27 -10 -43z" />
    <glyph glyph-name="quoteright" unicode="&#x2019;" horiz-adv-x="217" 
d="M143 1182q-4 -18 -18.5 -28.5t-32.5 -10.5q-29 0 -41 24q-9 25 -7 63.5t9 63.5q8 25 31 37.5t47 3.5q19 -10 39 -41q11 -15 6 -33t-22 -28q-4 -33 -11 -51z" />
    <glyph glyph-name="quotesinglbase" unicode="&#x201a;" horiz-adv-x="200" 
d="M158 -14q20 -31 3 -60.5t-48 -29.5q-19 0 -41.5 19t-30.5 38q-21 52 8 115q8 22 26 37.5t40 15.5q23 0 38.5 -19t12.5 -45q2 -9 -3 -29t-5 -22q-4 -13 0 -20z" />
    <glyph glyph-name="quotedblleft" unicode="&#x201c;" horiz-adv-x="468" 
d="M119 1219q-11 -11 -29 -11q-21 0 -34.5 16.5t-10.5 39.5q2 8 5 23.5t6 28t7 23.5q9 23 31.5 35.5t44.5 3.5q2 -2 4 -2q29 -1 35.5 -30t-18.5 -48q-25 -68 -41 -79zM369 1204q-1 -22 -16.5 -35.5t-35.5 -13.5q-29 0 -41 29q-18 42 -8 71q11 42 41.5 74.5t71.5 42.5
q32 6 43 -26.5t-18 -51.5q-14 -8 -25.5 -38.5t-11.5 -51.5z" />
    <glyph glyph-name="quotedblright" unicode="&#x201d;" horiz-adv-x="391" 
d="M152 1165q-1 -21 -15.5 -33t-34.5 -12q-26 0 -39 25q-20 40 -18 67q2 26 12.5 57.5t32 60t47.5 28.5q23 0 37.5 -19t5.5 -43q-6 -15 -17 -58.5t-11 -55.5v-17zM305 1208q9 -24 -5.5 -42.5t-37.5 -18.5q-12 0 -24 6q-18 10 -28 37.5t-5 48.5q6 26 26.5 44.5t47.5 23.5
q2 0 14 3.5t18 2.5q33 -3 35 -36.5t-29 -43.5l-16 -8q-1 -1 0 -4.5t2.5 -7t1.5 -5.5z" />
    <glyph glyph-name="quotedblbase" unicode="&#x201e;" horiz-adv-x="520" 
d="M152 70q9 -26 -7 -49t-41 -23q-19 0 -37 15t-24 34q-7 19 6 57q7 23 27 49.5t39 30.5q2 1 6 1t6 1q31 6 43.5 -23.5t-12.5 -49.5q-2 -2 -4.5 -13t-3.5 -12q0 -2 1 -9.5t1 -8.5zM389 14q1 -22 -13 -36.5t-34 -14.5q-30 0 -39 27q-25 64 -6 112q13 35 59 58.5t88 23.5
q22 0 32.5 -18t3 -38t-30.5 -26q-53 -13 -70 -28q0 -20 10 -60z" />
    <glyph glyph-name="guilsinglleft" unicode="&#x2039;" horiz-adv-x="806" 
d="M725 555q26 -13 29.5 -40t-14.5 -48t-46 -18q-62 6 -151 24q-75 16 -245.5 77.5t-209.5 98.5q-24 23 -30.5 53.5t5.5 59.5q5 12 15.5 25t16 18.5t26.5 21.5t22 17q96 72 266.5 184.5t208.5 112.5q32 -1 38.5 -33t-21.5 -45q-12 -8 -14 -10q-38 -38 -355 -301
q287 -119 326 -136q24 -12 51 -24q21 -13 82 -37z" />
    <glyph glyph-name="guilsinglright" unicode="&#x203a;" horiz-adv-x="708" 
d="M342 387q-45 -18 -117.5 -39.5t-103.5 -21.5q-32 0 -58 16q-23 15 -25 42.5t17 47.5q25 27 86 47q239 83 299 133q26 23 42.5 57t13.5 66q-5 93 -152 162q-4 2 -21.5 7.5t-25.5 10.5q-23 10 -24 36.5t20 41.5q19 13 49 13q59 0 125 -32t111 -77q40 -45 57 -119
q12 -62 -4.5 -127t-57.5 -114q-81 -96 -231 -150z" />
    <glyph glyph-name="Euro" unicode="&#x20ac;" horiz-adv-x="1298" 
d="M1167 170q-80 -78 -214.5 -115t-270.5 -37q-236 0 -352.5 115.5t-116.5 358.5q-47 -7 -55 -9q-14 -22 -39 -18q-2 0 -17.5 2t-17.5 2q-28 7 -30 37t22 47q21 19 139 47q1 0 3 1t3 1q1 8 4 27t4 30q14 71 27 125q-7 0 -22.5 -1t-22.5 -1q-47 -4 -64 11q-20 15 -13 41
t32 32q2 0 6 2.5t4 3.5q5 1 14.5 2.5t14.5 2.5q15 3 43 8t41 8q58 185 160 324q40 54 83 101t108.5 90.5t121.5 43.5q52 0 82.5 -33.5t50.5 -91.5q3 -10 9.5 -40t6.5 -38v-14q0 -2 6.5 -11t6.5 -10q13 -24 -0.5 -44.5t-36.5 -20.5q-20 0 -31 16q-13 25 -20 29
q-14 11 -35 42.5t-39 41.5q-78 -49 -147.5 -145.5t-110.5 -194.5q59 12 167.5 25.5t139.5 9.5q62 -4 96 -29q29 -18 35 -47q4 -26 -10.5 -44.5t-38.5 -18.5q-12 0 -29 10q-16 -3 -75.5 -9.5t-127 -13.5t-75.5 -8q-40 -5 -133 -14q-25 -76 -37 -154q241 43 528 43
q28 -1 40.5 -24t2 -47t-38.5 -29q-165 -30 -545 -72q-7 -196 84 -256q74 -47 215 -47q66 0 170 12t148 31q69 23 93 38t73 64q15 15 33 15q25 0 38.5 -23t-2.5 -51q-7 -11 -19.5 -32.5t-21 -35t-21.5 -31t-26 -30.5z" />
    <glyph glyph-name="minus" unicode="&#x2212;" horiz-adv-x="751" 
d="M569 623q-50 -5 -153 -5q-18 0 -136.5 0.5t-181.5 4.5q-35 5 -41 8q-26 15 -19.5 44.5t34.5 41.5q125 53 340 53q72 0 129 -8q8 -1 65.5 -12.5t65.5 -12.5q30 -5 40 -31t-4.5 -51t-45.5 -26q-14 0 -29.5 -1t-34.5 -2.5t-29 -2.5z" />
    <glyph glyph-name="null" horiz-adv-x="0" 
 />
    </font>
</defs>
</svg>
